<svg id="workspace" xmlns="http://www.w3.org/2000/svg" xmlns:xlink="http://www.w3.org/1999/xlink" style="text-rendering: geometricprecision; cursor: auto;">
<defs>
<linearGradient x1="0" y1="0.5" x2="1" y2="0.5" id="linearGradientSkjbxtknk1c">
<stop offset="0%" stop-color="#ff7aa2">
</stop>
<stop offset="100%" stop-color="#ff7aa2">
</stop>
</linearGradient>
<linearGradient x1="0" y1="0.5" x2="1" y2="0.5" id="linearGradientSkjbxtknk1l">
<stop offset="0%" stop-color="#ffffff">
</stop>
<stop offset="100%" stop-color="#ffffff">
</stop>
</linearGradient>
<linearGradient x1="0" y1="0.5" x2="1" y2="0.5" id="linearGradientSkjbxtknk1u">
<stop offset="0%" stop-color="#8a2846">
</stop>
<stop offset="100%" stop-color="#8a2846">
</stop>
</linearGradient>
<linearGradient x1="0" y1="0.5" x2="1" y2="0.5" id="linearGradientSkjbxtknk2b">
<stop offset="0%" stop-color="#ff7aa2">
</stop>
<stop offset="100%" stop-color="#ff7aa2">
</stop>
</linearGradient>
<linearGradient x1="0" y1="0.5" x2="1" y2="0.5" id="linearGradientSkjbxtknk2e">
<stop offset="0%" stop-color="#ffffff">
</stop>
<stop offset="100%" stop-color="#ffffff">
</stop>
</linearGradient>
<linearGradient x1="0" y1="0.5" x2="1" y2="0.5" id="linearGradientSkjbxtknk2h">
<stop offset="0%" stop-color="#8a2846">
</stop>
<stop offset="100%" stop-color="#8a2846">
</stop>
</linearGradient>
<linearGradient x1="0" y1="0.5" x2="1" y2="0.5" id="linearGradientSkjbxtknk2q">
<stop offset="0%" stop-color="#ff7aa2">
</stop>
<stop offset="100%" stop-color="#ff7aa2">
</stop>
</linearGradient>
<linearGradient x1="0" y1="0.5" x2="1" y2="0.5" id="linearGradientSkjbxtknk2t">
<stop offset="0%" stop-color="#ffffff">
</stop>
<stop offset="100%" stop-color="#ffffff">
</stop>
</linearGradient>
<linearGradient x1="0" y1="0.5" x2="1" y2="0.5" id="linearGradientSkjbxtknk2w">
<stop offset="0%" stop-color="#8a2846">
</stop>
<stop offset="100%" stop-color="#8a2846">
</stop>
</linearGradient>
<linearGradient x1="0" y1="0.5" x2="1" y2="0.5" id="linearGradientSkjbxtknk35">
<stop offset="0%" stop-color="#ff7aa2">
</stop>
<stop offset="100%" stop-color="#ff7aa2">
</stop>
</linearGradient>
<linearGradient x1="0" y1="0.5" x2="1" y2="0.5" id="linearGradientSkjbxtknk38">
<stop offset="0%" stop-color="#ffffff">
</stop>
<stop offset="100%" stop-color="#ffffff">
</stop>
</linearGradient>
<linearGradient x1="0" y1="0.5" x2="1" y2="0.5" id="linearGradientSkjbxtknk3b">
<stop offset="0%" stop-color="#ffffff">
</stop>
<stop offset="100%" stop-color="#ffffff">
</stop>
</linearGradient>
<linearGradient x1="0" y1="0.5" x2="1" y2="0.5" id="linearGradientSkjbxtknk3i">
<stop offset="0%" stop-color="#ffffff">
</stop>
<stop offset="100%" stop-color="#ffffff">
</stop>
</linearGradient>
<linearGradient x1="0" y1="0.5" x2="1" y2="0.5" id="linearGradientSkjbxtknk3l">
<stop offset="0%" stop-color="#8a2846">
</stop>
<stop offset="100%" stop-color="#8a2846">
</stop>
</linearGradient>
<linearGradient x1="0" y1="0.5" x2="1" y2="0.5" id="linearGradientSkjbxtknk3o">
<stop offset="0%" stop-color="#ffffff">
</stop>
<stop offset="100%" stop-color="#ffffff">
</stop>
</linearGradient>
<linearGradient x1="0" y1="0.5" x2="1" y2="0.5" id="linearGradientSkjbxtknk3r">
<stop offset="0%" stop-color="#8a2846">
</stop>
<stop offset="100%" stop-color="#8a2846">
</stop>
</linearGradient>
<linearGradient x1="0" y1="0.5" x2="1" y2="0.5" id="linearGradientSkjbxtknk3u">
<stop offset="0%" stop-color="#ff7aa2">
</stop>
<stop offset="100%" stop-color="#ff7aa2">
</stop>
</linearGradient>
<linearGradient x1="0" y1="0.5" x2="1" y2="0.5" id="linearGradientSkjbxtknk3x">
<stop offset="0%" stop-color="#8a2846">
</stop>
<stop offset="100%" stop-color="#8a2846">
</stop>
</linearGradient>
<linearGradient x1="0" y1="0.5" x2="1" y2="0.5" id="linearGradientSkjbxtknk40">
<stop offset="0%" stop-color="#ffffff">
</stop>
<stop offset="100%" stop-color="#ffffff">
</stop>
</linearGradient>
<linearGradient x1="0" y1="0.5" x2="1" y2="0.5" id="linearGradientSkjbxtknk43">
<stop offset="0%" stop-color="#ffffff">
</stop>
<stop offset="100%" stop-color="#ffffff">
</stop>
</linearGradient>
<linearGradient x1="0" y1="0.5" x2="1" y2="0.5" id="linearGradientSkjbxtknk4a">
<stop offset="0%" stop-color="#ffffff">
</stop>
<stop offset="100%" stop-color="#ffffff">
</stop>
</linearGradient>
<linearGradient x1="0" y1="0.5" x2="1" y2="0.5" id="linearGradientSkjbxtknk4d">
<stop offset="0%" stop-color="#ffffff">
</stop>
<stop offset="100%" stop-color="#ffffff">
</stop>
</linearGradient>
<linearGradient x1="0" y1="0.5" x2="1" y2="0.5" id="linearGradientSkjbxtknk4g">
<stop offset="0%" stop-color="#ffffff">
</stop>
<stop offset="100%" stop-color="#ffffff">
</stop>
</linearGradient>
<linearGradient x1="0" y1="0.5" x2="1" y2="0.5" id="linearGradientSkjbxtknk4j">
<stop offset="0%" stop-color="#ffffff">
</stop>
<stop offset="100%" stop-color="#ffffff">
</stop>
</linearGradient>
<linearGradient x1="0" y1="0.5" x2="1" y2="0.5" id="linearGradientSkjbxtknk4m">
<stop offset="0%" stop-color="#ffffff">
</stop>
<stop offset="100%" stop-color="#ffffff">
</stop>
</linearGradient>
<linearGradient x1="0" y1="0.5" x2="1" y2="0.5" id="linearGradientSkjbxtknk4p">
<stop offset="0%" stop-color="#ffffff">
</stop>
<stop offset="100%" stop-color="#ffffff">
</stop>
</linearGradient>
<linearGradient x1="0" y1="0.5" x2="1" y2="0.5" id="linearGradientSkjbxtknk4s">
<stop offset="0%" stop-color="#ffffff">
</stop>
<stop offset="100%" stop-color="#ffffff">
</stop>
</linearGradient>
<linearGradient x1="0" y1="0.5" x2="1" y2="0.5" id="linearGradientSkjbxtknk4v">
<stop offset="0%" stop-color="#ffffff">
</stop>
<stop offset="100%" stop-color="#ffffff">
</stop>
</linearGradient>
<linearGradient x1="0" y1="0.5" x2="1" y2="0.5" id="linearGradientSkjbxtknk4y">
<stop offset="0%" stop-color="#ffffff">
</stop>
<stop offset="100%" stop-color="#ffffff">
</stop>
</linearGradient>
<linearGradient x1="0" y1="0.5" x2="1" y2="0.5" id="linearGradientSkjbxtknk51">
<stop offset="0%" stop-color="#ffffff">
</stop>
<stop offset="100%" stop-color="#ffffff">
</stop>
</linearGradient>
<linearGradient x1="0" y1="0.5" x2="1" y2="0.5" id="linearGradientSkjbxtknk54">
<stop offset="0%" stop-color="#ffffff">
</stop>
<stop offset="100%" stop-color="#ffffff">
</stop>
</linearGradient>
<linearGradient x1="0" y1="0.5" x2="1" y2="0.5" id="linearGradientSkjbxtknk57">
<stop offset="0%" stop-color="#ffffff">
</stop>
<stop offset="100%" stop-color="#ffffff">
</stop>
</linearGradient>
<linearGradient x1="0" y1="0.5" x2="1" y2="0.5" id="linearGradientSkjbxtknk5a">
<stop offset="0%" stop-color="#ffffff">
</stop>
<stop offset="100%" stop-color="#ffffff">
</stop>
</linearGradient>
<linearGradient x1="0" y1="0.5" x2="1" y2="0.5" id="linearGradientSkjbxtknk5d">
<stop offset="0%" stop-color="#ff7aa2">
</stop>
<stop offset="100%" stop-color="#ff7aa2">
</stop>
</linearGradient>
<linearGradient x1="0" y1="0.5" x2="1" y2="0.5" id="linearGradientSkjbxtknk5g">
<stop offset="0%" stop-color="#ffffff">
</stop>
<stop offset="100%" stop-color="#ffffff">
</stop>
</linearGradient>
<linearGradient x1="0" y1="0.5" x2="1" y2="0.5" id="linearGradientSkjbxtknk5j">
<stop offset="0%" stop-color="#8a2846">
</stop>
<stop offset="100%" stop-color="#8a2846">
</stop>
</linearGradient>
<linearGradient x1="0" y1="0.5" x2="1" y2="0.5" id="linearGradientSkjbxtknk5s">
<stop offset="0%" stop-color="#ff7aa2">
</stop>
<stop offset="100%" stop-color="#ff7aa2">
</stop>
</linearGradient>
<linearGradient x1="0" y1="0.5" x2="1" y2="0.5" id="linearGradientSkjbxtknk5v">
<stop offset="0%" stop-color="#ffffff">
</stop>
<stop offset="100%" stop-color="#ffffff">
</stop>
</linearGradient>
<linearGradient x1="0" y1="0.5" x2="1" y2="0.5" id="linearGradientSkjbxtknk5y">
<stop offset="0%" stop-color="#8a2846">
</stop>
<stop offset="100%" stop-color="#8a2846">
</stop>
</linearGradient>
<linearGradient x1="0" y1="0.5" x2="1" y2="0.5" id="linearGradientSkjbxtknk6v">
<stop offset="0%" stop-color="#ffffff">
</stop>
<stop offset="100%" stop-color="#ffffff">
</stop>
</linearGradient>
<linearGradient x1="0" y1="0.5" x2="1" y2="0.5" id="linearGradientSkjbxtknk72">
<stop offset="0%" stop-color="#ff7aa2">
</stop>
<stop offset="100%" stop-color="#ff7aa2">
</stop>
</linearGradient>
<linearGradient x1="0" y1="0.5" x2="1" y2="0.5" id="linearGradientSkjbxtknk79">
<stop offset="0%" stop-color="#ff7aa2">
</stop>
<stop offset="100%" stop-color="#ff7aa2">
</stop>
</linearGradient>
<linearGradient x1="0" y1="0.5" x2="1" y2="0.5" id="linearGradientSkjbxtknk7i">
<stop offset="0%" stop-color="#8a2846">
</stop>
<stop offset="100%" stop-color="#8a2846">
</stop>
</linearGradient>
<linearGradient x1="0" y1="0.5" x2="1" y2="0.5" id="linearGradientSkjbxtknk7l">
<stop offset="0%" stop-color="#8a2846">
</stop>
<stop offset="100%" stop-color="#8a2846">
</stop>
</linearGradient>
<linearGradient x1="0" y1="0.5" x2="1" y2="0.5" id="linearGradientSkjbxtknk7o">
<stop offset="0%" stop-color="#ff7aa2">
</stop>
<stop offset="100%" stop-color="#ff7aa2">
</stop>
</linearGradient>
<linearGradient x1="0" y1="0.5" x2="1" y2="0.5" id="linearGradientSkjbxtknk7r">
<stop offset="0%" stop-color="#ffffff">
</stop>
<stop offset="100%" stop-color="#ffffff">
</stop>
</linearGradient>
<linearGradient x1="0" y1="0.5" x2="1" y2="0.5" id="linearGradientSkjbxtknk7u">
<stop offset="0%" stop-color="#ff7aa2">
</stop>
<stop offset="100%" stop-color="#ff7aa2">
</stop>
</linearGradient>
<linearGradient x1="0" y1="0.5" x2="1" y2="0.5" id="linearGradientSkjbxtknk7x">
<stop offset="0%" stop-color="#8a2846">
</stop>
<stop offset="100%" stop-color="#8a2846">
</stop>
</linearGradient>
<linearGradient x1="0" y1="0.5" x2="1" y2="0.5" id="linearGradientSkjbxtknk89">
<stop offset="0%" stop-color="#8a2846">
</stop>
<stop offset="100%" stop-color="#8a2846">
</stop>
</linearGradient>
</defs>
<g class="svg-clip svg-visible" transform="matrix(0.7047,0,0,0.7047,738.1073,278.4596)" style="cursor: move; opacity: 1;">
<rect x="0" y="0" width="187" height="186" fill="none" class="svg-hitbox" style="">
</rect>
<svg width="187.0337218024264" height="186.77" viewBox="-5.131860901213205,-5,187.0337218024264,186.77">
<desc>
Created with Snap</desc>
<defs>
</defs>
<g>
</g>
<g>
</g>
<g>
</g>
<g>
<circle cx="88.385" cy="88.385" r="88.385" stroke="none" fill="url('#linearGradientSkjbxtknk7u')" style="">
</circle>
</g>
</svg>
</g>
<g class="svg-clip svg-visible" transform="matrix(0.47,0,0,0.47,759.058,301.293)" style="cursor: move; opacity: 1;">
<rect x="0" y="0" width="187" height="186" fill="none" class="svg-hitbox" style="">
</rect>
<svg width="187.0337218024264" height="186.77" viewBox="-5.131860901213205,-5,187.0337218024264,186.77">
<desc>
Created with Snap</desc>
<defs>
</defs>
<g>
</g>
<g>
</g>
<g>
</g>
<g>
<circle cx="88.385" cy="88.385" r="88.385" stroke="none" fill="url('#linearGradientSkjbxtknk7r')" style="">
</circle>
</g>
</svg>
</g>
<g class="svg-clip svg-visible" transform="matrix(1.1353,1.306,-1.306,1.1353,811.5354,220.9375)" style="cursor: move; opacity: 1;">
<rect x="0" y="0" width="100" height="100" fill="none" class="svg-hitbox" style="">
</rect>
<svg width="100.1074508502092" height="100.1094260069511" viewBox="-0.05381312130948501,-0.05442600695108801,100.1074508502092,100.1094260069511">
<desc>
Created with Snap</desc>
<defs>
</defs>
<g>
</g>
<g>
</g>
<g>
</g>
<g>
<path d="M93.018,6.982c-4.868-4.87-16.123-0.568-28.962,8.261C59.712,13.48,54.969,12.5,50,12.5c-20.678,0-37.5,16.822-37.5,37.5  c0,4.969,0.98,9.712,2.743,14.056C6.415,76.894,2.113,88.148,6.982,93.018c1.394,1.395,3.312,2.037,5.64,2.037  c5.803,0,14.159-3.999,23.321-10.298C40.288,86.52,45.03,87.5,50,87.5c20.678,0,37.5-16.822,37.5-37.5  c0-4.969-0.98-9.712-2.743-14.056C93.584,23.106,97.887,11.852,93.018,6.982z M63.597,45.655c-1.358-0.269-2.671,0.608-2.942,1.961  l-2.5,12.5c0,0.002,0,0.004,0,0.005c-0.036,0.184-0.046,0.371-0.041,0.557c0.002,0.057,0.011,0.111,0.016,0.168  c0.013,0.131,0.034,0.26,0.068,0.389c0.016,0.06,0.032,0.118,0.052,0.176c0.043,0.127,0.099,0.249,0.163,0.368  c0.026,0.048,0.047,0.097,0.075,0.143c0.099,0.159,0.213,0.312,0.351,0.451c0.119,0.119,0.249,0.224,0.386,0.316  c0.097,0.065,0.201,0.112,0.304,0.162c0.043,0.021,0.083,0.049,0.128,0.067c0.115,0.047,0.234,0.077,0.353,0.107  c0.038,0.009,0.074,0.026,0.113,0.033c0.16,0.031,0.321,0.048,0.483,0.048c0.162,0,0.324-0.016,0.484-0.048  c0.002,0,0.004,0,0.006-0.001l12.5-2.5c1.354-0.271,2.232-1.588,1.961-2.942c-0.271-1.354-1.585-2.229-2.942-1.961l-4.658,0.932  c4.835-5.19,9.337-10.518,13.233-15.697C82.037,43.782,82.5,46.837,82.5,50c0,17.92-14.58,32.5-32.5,32.5  c-12.67,0-23.662-7.292-29.02-17.896c3.792-5.283,8.553-11.138,14.286-17.319l-0.824,4.118c-0.271,1.354,0.607,2.671,1.961,2.942  c0.166,0.033,0.331,0.049,0.493,0.049c1.167,0,2.211-0.822,2.449-2.01l2.5-12.5c0-0.002,0-0.004,0-0.005  c0.036-0.184,0.046-0.371,0.041-0.557c-0.002-0.057-0.011-0.111-0.016-0.168c-0.013-0.131-0.034-0.26-0.068-0.389  c-0.016-0.06-0.032-0.118-0.052-0.176c-0.043-0.127-0.099-0.249-0.163-0.368c-0.026-0.048-0.047-0.097-0.075-0.143  c-0.099-0.159-0.213-0.312-0.351-0.451c-0.139-0.139-0.292-0.253-0.452-0.352c-0.044-0.027-0.091-0.048-0.137-0.072  c-0.123-0.066-0.248-0.123-0.378-0.167c-0.054-0.018-0.108-0.034-0.164-0.049c-0.135-0.035-0.27-0.058-0.408-0.071  c-0.05-0.005-0.099-0.013-0.15-0.014c-0.189-0.006-0.377,0.004-0.563,0.04c-0.002,0-0.004,0-0.005,0l-12.5,2.5  c-1.354,0.271-2.232,1.588-1.961,2.942c0.271,1.354,1.585,2.23,2.942,1.961l4.658-0.932c-4.835,5.19-9.337,10.518-13.233,15.697  C17.963,56.218,17.5,53.163,17.5,50c0-17.92,14.58-32.5,32.5-32.5c12.67,0,23.662,7.292,29.02,17.896  c-3.792,5.283-8.553,11.138-14.286,17.319l0.824-4.118C65.829,47.243,64.951,45.926,63.597,45.655z M10.518,89.482  c-2.055-2.055,0.37-9.65,7.297-20.263c3.186,5.316,7.65,9.78,12.966,12.966C20.169,89.113,12.575,91.537,10.518,89.482z   M82.185,30.781c-3.186-5.315-7.65-9.779-12.965-12.965c10.613-6.927,18.206-9.351,20.262-7.298  C91.538,12.573,89.113,20.167,82.185,30.781z" stroke="none" fill="url('#linearGradientSkjbxtknk7x')" style="">
</path>
</g>
</svg>
</g>
<g class="svg-text svg-visible" transform="matrix(1.2073,0,0,1.2073,804,418)" style="pointer-events: fill; cursor: move; opacity: 1;">
<path fill="none" style="" d="M-61.865234375,80 C-20,79 20,79 61.865234375,80">
</path>

<path d="M-4.545234375-32.86L-4.545234375-32.86Q-4.545234375-31.84 -4.735234374999997-30.88Q-4.935234375-29.93 -5.175234375000002-28.98Q-5.415234374999997-28.03 -5.615234375-27.05Q-5.815234375000003-26.07 -5.815234375000003-25.1L-5.815234375000003-25.1Q-5.815234375000003-24.71 -5.735234374999997-24.34Q-5.665234374999997-23.97 -5.665234374999997-23.58L-5.665234374999997-23.58Q-5.665234374999997-22.61 -5.985234374999997-21.73Q-6.295234375-20.85 -6.735234374999997-20.02L-6.735234374999997-20.02Q-7.125234374999998-19.29 -7.205234375000003-18.51Q-7.275234374999997-17.72 -7.295234375-16.94Q-7.325234375000001-16.16 -7.475234374999999-15.38Q-7.615234375-14.6 -8.055234374999998-13.92L-8.055234374999998-13.92Q-8.155234375-13.43 -8.325234375-12.48Q-8.495234375000003-11.52 -8.735234374999997-11.13L-8.735234374999997-11.13Q-8.785234375000002-11.04 -9.035234375000002-10.99Q-9.275234374999997-10.94 -9.575234375-10.89Q-9.865234375-10.84 -10.205234375000003-10.69Q-10.545234375-10.55 -10.795234375-10.25L-10.795234375-10.25Q-11.035234375000002-10.01 -11.185234375-9.57Q-11.325234375-9.13 -11.525234374999997-8.69Q-11.715234375000001-8.25 -11.985234374999997-7.93Q-12.255234375-7.62 -12.695234374999998-7.62L-12.695234374999998-7.62Q-13.135234375000003-7.62 -13.475234375-7.79Q-13.815234375000003-7.96 -14.155234375-8.13Q-14.505234375-8.3 -14.845234374999997-8.4Q-15.185234375-8.5 -15.675234375000002-8.35L-15.675234375000002-8.35Q-15.525234374999997-8.25 -15.575234375-7.89Q-15.625234374999998-7.52 -15.555234374999998-7.13Q-15.475234375-6.74 -15.135234375000003-6.4Q-14.795234375-6.05 -13.915234374999997-6.05L-13.915234374999997-6.05Q-13.475234375-6.05 -13.065234375000003-6.1Q-12.645234375000001-6.15 -12.205234375000003-6.25L-12.205234375000003-6.25Q-12.595234374999997-5.18 -13.135234375000003-4.57Q-13.675234375000002-3.96 -14.335234374999999-3.49Q-14.985234374999997-3.03 -15.695234374999998-2.56Q-16.405234375-2.1 -17.085234375-1.37L-17.085234375-1.37Q-17.915234374999997-0.54 -18.675234375000002-0.34Q-19.435234375-0.15 -20.455234375000003 0.15L-20.455234375000003 0.15Q-21.635234375000003 0.49 -22.115234375 0.98Q-22.605234375000002 1.46 -23.195234375 1.9Q-23.775234374999997 2.34 -24.785234375 2.66Q-25.785234375 2.98 -27.925234375000002 2.98L-27.925234375000002 2.98Q-29.885234375 2.98 -31.815234375 2.83Q-33.735234375000005 2.69 -35.645234375 2.44L-35.645234375 2.44Q-36.525234375 2.34 -37.085234375 2.12Q-37.645234375 1.9 -38.135234374999996 1.64Q-38.625234375000005 1.37 -39.115234375 1.07Q-39.595234375000004 0.78 -40.335234375 0.49L-40.335234375 0.49Q-40.725234375 0.34 -41.255234375 0.12Q-41.795234375-0.1 -42.385234374999996-0.34Q-42.965234375-0.59 -43.455234375-0.85Q-43.945234375-1.12 -44.235234375000005-1.37L-44.235234375000005-1.37Q-44.575234375-1.66 -44.705234375-2.03Q-44.825234375-2.39 -44.925234375-2.81Q-45.015234375-3.22 -45.145234375-3.59Q-45.265234375-3.96 -45.605234374999995-4.2L-45.605234374999995-4.2Q-46.335234375-4.3 -47.025234375-4.47Q-47.705234375-4.64 -48.385234374999996-4.88L-48.385234374999996-4.88Q-48.585234375-5.42 -48.755234375-5.93Q-48.925234375-6.45 -49.125234375-6.98L-49.125234375-6.98Q-49.755234375-7.67 -50.345234375000004-8.13Q-50.925234375-8.59 -51.365234375-9.08Q-51.805234375-9.57 -52.125234375-10.23Q-52.445234375-10.89 -52.535234375-11.96L-52.535234375-11.96Q-52.685234375-13.23 -53.125234375-14.43Q-53.565234375-15.63 -54.025234375-16.8Q-54.495234375-17.97 -54.855234375-19.19Q-55.225234375-20.41 -55.225234375-21.68L-55.225234375-21.68Q-55.225234375-23 -54.685234375-24.37L-54.685234375-24.37Q-56.105234375-26.37 -56.445234375-28.74Q-56.785234375-31.1 -56.785234375-33.5L-56.785234375-33.5Q-56.785234375-34.28 -56.765234375-35.03Q-56.735234375-35.79 -56.735234375-36.52L-56.735234375-36.52Q-56.735234375-37.35 -57.105234375-37.82Q-57.475234375-38.28 -57.475234375-38.96L-57.475234375-38.96Q-57.475234375-40.04 -57.155234375-41.06Q-56.835234375-42.09 -56.735234375-43.16L-56.735234375-43.16Q-57.375234375-43.26 -57.565234375-43.65L-57.565234375-43.65L-57.475234375-43.85Q-57.125234375-44.43 -56.905234375-44.92Q-56.685234375-45.41 -56.595234375000004-45.85Q-56.495234375-46.29 -56.395234375-46.78Q-56.295234375-47.27 -56.155234375-47.9L-56.155234375-47.9Q-55.765234375-49.9 -55.155234375-51.81Q-54.545234375-53.71 -53.955234375-55.66L-53.955234375-55.66Q-53.325234375-57.91 -52.395234375-59.62Q-51.465234375-61.33 -49.515234375-62.79L-49.515234375-62.79Q-48.685234375-63.48 -47.995234375-64.26Q-47.315234375-65.04 -47.025234375-66.11L-47.025234375-66.11Q-46.775234375-66.31 -46.485234375-66.36Q-46.195234375-66.41 -45.895234375-66.41L-45.895234375-66.41L-45.505234375-66.41Q-45.165234375-66.41 -44.845234375000004-66.48Q-44.535234375-66.55 -44.235234375000005-66.8L-44.235234375000005-66.8Q-43.505234375-67.48 -42.945234375-67.77Q-42.385234374999996-68.07 -41.405234375-68.07L-41.405234375-68.07Q-40.725234375-68.07 -40.085234375-67.94Q-39.455234375-67.82 -38.765234375-67.68L-38.765234375-67.68Q-38.525234375-67.92 -38.065234375-68.33Q-37.595234375000004-68.75 -37.255234375-68.9L-37.255234375-68.9L-37.255234375-68.75Q-37.255234375-68.55 -37.185234375-68.38Q-37.105234374999995-68.21 -36.865234375-68.21L-36.865234375-68.21Q-36.235234375000005-68.21 -35.645234375-68.51Q-35.055234375-68.8 -34.425234375-68.9L-34.425234375-68.9Q-33.005234375-69.14 -31.595234375-69.65Q-30.175234375-70.17 -28.715234375-70.17L-28.715234375-70.17Q-27.145234375-70.17 -25.365234375-69.97Q-23.585234375-69.78 -21.875234374999998-69.24Q-20.165234374999997-68.7 -18.705234375000003-67.75Q-17.235234374999997-66.8 -16.355234375000002-65.28L-16.355234375000002-65.28Q-15.965234375000001-64.6 -15.575234375-64.23Q-15.185234375-63.87 -14.795234375-63.6Q-14.405234375-63.33 -14.015234374999999-63.06Q-13.625234374999998-62.79 -13.185234375-62.3L-13.185234375-62.3Q-12.255234375-61.23 -11.695234374999998-59.99Q-11.135234375000003-58.74 -10.105234375000002-57.76L-10.105234375000002-57.76Q-8.835234374999999-56.59 -8.225234375-54.93Q-7.615234375-53.27 -7.615234375-51.56L-7.615234375-51.56Q-7.615234375-51.03 -7.765234374999999-50.49Q-7.905234374999999-49.95 -7.905234374999999-49.37L-7.905234374999999-49.37Q-7.905234374999999-48.88 -7.695234374999998-48.34Q-7.475234374999999-47.8 -7.175234375000002-47.22Q-6.885234375000003-46.63 -6.645234375000001-46Q-6.395234375000001-45.36 -6.295234375-44.78L-6.295234375-44.78Q-6.155234374999999-43.46 -5.855234375000002-42.21Q-5.565234375000003-40.97 -5.275234374999997-39.65L-5.275234374999997-39.65Q-4.885234375000003-37.99 -4.685234375-36.28Q-4.495234375000003-34.57 -4.545234375-32.86ZM-12.495234375000003-33.2L-12.495234375000003-33.2Q-12.495234375000003-35.94 -12.965234375000001-38.62Q-13.425234375000002-41.31 -13.865234375-43.99L-13.865234375-43.99Q-14.065234375000003-44.97 -14.475234375-45.85Q-14.895234375000001-46.73 -15.185234375-47.66L-15.185234375-47.66Q-15.775234374999997-49.41 -16.305234374999998-51.17Q-16.845234374999997-52.93 -17.385234375000003-54.69L-17.385234375000003-54.69Q-17.725234375-55.76 -18.745234375000003-56.57Q-19.775234374999997-57.37 -21.145234375-57.93Q-22.505234375-58.5 -24.095234374999997-58.86Q-25.685234375-59.23 -27.145234375-59.45Q-28.615234375-59.67 -29.855234375000002-59.74Q-31.105234375-59.81 -31.735234375-59.81L-31.735234375-59.81L-31.105234375-59.86L-31.645234375-59.81Q-32.715234375-59.81 -33.765234375-59.91Q-34.815234375-60.01 -35.885234374999996-60.01L-35.885234374999996-60.01Q-36.765234375-60.01 -37.625234375000005-59.89Q-38.475234375-59.77 -39.155234375-59.23L-39.155234375-59.23Q-40.775234375-57.96 -42.185234375-56.86Q-43.605234374999995-55.76 -44.535234375-53.86L-44.535234375-53.86Q-44.825234375-53.22 -45.165234375-52.95Q-45.505234375-52.69 -45.825234375-52.42Q-46.145234375-52.15 -46.385234374999996-51.81Q-46.635234374999996-51.46 -46.725234375-50.68L-46.725234375-50.68Q-46.975234375-49.27 -47.285234375-47.88Q-47.605234375-46.48 -47.605234375-45.07L-47.605234375-45.07Q-47.605234375-43.55 -47.875234375-42.07Q-48.145234375-40.58 -48.735234375-39.16L-48.735234375-39.16Q-48.875234375-38.77 -48.995234375-38.43Q-49.125234375-38.09 -49.125234375-37.7L-49.125234375-37.7Q-49.125234375-36.96 -48.775234375-36.45Q-48.435234375-35.94 -48.435234375-35.55L-48.435234375-35.55Q-48.435234375-35.35 -48.555234375-35.33Q-48.685234375-35.3 -48.805234375-35.23Q-48.925234375-35.16 -49.045234375-34.91Q-49.165234375-34.67 -49.165234375-34.03L-49.165234375-34.03Q-49.165234375-32.62 -49.145234375-31.15Q-49.125234375-29.69 -48.875234375-28.27L-48.875234375-28.27Q-48.735234375-27.44 -48.365234375-26.68Q-47.995234375-25.93 -47.995234375-25.1L-47.995234375-25.1Q-47.995234375-24.56 -48.245234375-24.02Q-48.485234375-23.49 -48.485234375-22.9L-48.485234375-22.9Q-48.485234375-22.22 -48.095234375000004-21.8Q-47.705234375-21.39 -47.315234375-20.85L-47.315234375-20.85Q-47.025234375-20.46 -46.805234375-19.85Q-46.585234375-19.24 -46.365234375-18.7Q-46.145234375-18.16 -45.945234375-17.77Q-45.755234375-17.38 -45.505234375-17.38L-45.505234375-17.38Q-45.315234375-17.38 -45.165234375-17.46Q-45.015234375-17.53 -44.825234375-17.53L-44.825234375-17.53Q-43.845234375000004-17.53 -43.335234375-16.67Q-42.825234375-15.82 -42.825234375-14.99L-42.825234375-14.99Q-42.825234375-14.31 -42.435234375-13.84Q-42.045234375-13.38 -41.505234375-12.99Q-40.965234375-12.6 -40.405234375-12.23Q-39.845234375000004-11.87 -39.455234375-11.43L-39.455234375-11.43Q-38.815234375-10.69 -38.455234375-10.45Q-38.085234375-10.21 -37.795234375-10.13Q-37.495234374999995-10.06 -37.235234375000005-10.01Q-36.965234375-9.96 -36.525234375-9.67L-36.525234375-9.67Q-35.985234375000005-9.28 -35.425234375-8.81Q-34.865234375-8.35 -34.325234375-7.96L-34.325234375-7.96Q-32.815234375-6.88 -30.935234375-6.67Q-29.055234374999998-6.45 -27.245234375000003-6.45L-27.245234375000003-6.45Q-26.515234375-6.45 -25.875234374999998-6.79Q-25.245234375000003-7.13 -24.605234375000002-7.54Q-23.975234375-7.96 -23.315234375000003-8.3Q-22.655234375-8.64 -21.875234374999998-8.64L-21.875234374999998-8.64Q-21.235234374999997-8.64 -20.555234374999998-8.35L-20.555234374999998-8.35Q-19.435234375-10.06 -18.405234375-11.08Q-17.385234375000003-12.11 -16.555234374999998-13.09Q-15.725234375-14.06 -15.135234375000003-15.33Q-14.555234374999998-16.6 -14.305234374999998-18.8L-14.305234374999998-18.8Q-14.205234375000003-19.73 -13.795234375-20.53Q-13.375234374999998-21.34 -13.285234375000002-22.22L-13.285234375000002-22.22Q-13.035234375000002-24.17 -13.015234374999999-26.12Q-12.985234374999997-28.08 -12.695234374999998-30.03L-12.695234374999998-30.03Q-12.595234374999997-30.81 -12.545234375-31.59Q-12.495234375000003-32.37 -12.495234375000003-33.2ZM 59.7146875-1.86L 59.7146875-1.86Q 59.7146875-1.17  59.4746875-0.85Q 59.2246875-0.54  58.9146875-0.29Q 58.59468749999999-0.05  58.34468749999999 0.2Q 58.1046875 0.44  58.1046875 0.93L 58.1046875 0.93Q 58.1046875 1.22  58.154687499999994 1.37L 58.154687499999994 1.37Q 56.4446875 1.81  54.37468749999999 1.95Q 52.294687499999995 2.1  50.53468749999999 2.1L 50.53468749999999 2.1Q 50.294687499999995 2.1  49.92468749999999 1.98Q 49.56468749999999 1.86  49.2146875 1.68Q 48.87468749999999 1.51  48.654687499999994 1.25Q 48.434687499999995 0.98  48.434687499999995 0.68L 48.434687499999995 0.68Q 47.8546875 0.88  47.1446875 1Q 46.434687499999995 1.12  45.7746875 1.32Q 45.1146875 1.51  44.53468749999999 1.86Q 43.9446875 2.2  43.5546875 2.78L 43.5546875 2.78Q 42.92468749999999 2.59  41.87468749999999 2.44Q 40.824687499999996 2.29  39.6446875 2.1Q 38.4746875 1.9  37.3046875 1.64Q 36.1346875 1.37  35.184687499999995 0.95Q 34.2246875 0.54  33.6146875-0.05Q 33.0046875-0.63  33.0046875-1.51L 33.0046875-1.51Q 33.0046875-1.76  33.0546875-2.37Q 33.1046875-2.98  33.2546875-3.61Q 33.3946875-4.25  33.6146875-4.74Q 33.8346875-5.22  34.1346875-5.22L 34.1346875-5.22Q 34.6146875-5.22  35.0846875-5.03Q 35.544687499999995-4.83  36.0846875-4.83L 36.0846875-4.83L 36.574687499999996-4.88L 36.62468749999999-5.27Q 36.62468749999999-5.66  36.404687499999994-5.88Q 36.184687499999995-6.1  35.84468749999999-6.18Q 35.4946875-6.25  35.154687499999994-6.25Q 34.81468749999999-6.25  34.5246875-6.25L 34.5246875-6.25Q 35.154687499999994-6.88  35.3546875-7.76Q 35.544687499999995-8.64  35.544687499999995-9.47L 35.544687499999995-9.47Q 35.544687499999995-10.35  35.324687499999996-11.5Q 35.1046875-12.65  34.6146875-13.72Q 34.1346875-14.79  33.42468749999999-15.63Q 32.7146875-16.46  31.734687499999996-16.7L 31.734687499999996-16.7Q 31.444687499999997-17.33  31.054687499999996-18.04Q 30.664687499999996-18.75  30.154687499999998-19.34Q 29.634687499999995-19.92  28.974687499999998-20.31Q 28.324687499999996-20.7  27.534687499999997-20.7L 27.534687499999997-20.7Q 26.664687499999996-20.7  25.294687499999995-19.78Q 23.924687499999997-18.85  22.634687499999995-17.65Q 21.334687499999998-16.46  20.384687499999995-15.33Q 19.434687499999995-14.21  19.434687499999995-13.82L 19.434687499999995-13.82Q 19.434687499999995-13.28  19.584687499999998-12.79Q 19.724687499999998-12.3  19.724687499999998-11.77L 19.724687499999998-11.77Q 19.724687499999998-10.94  19.384687499999995-10.25Q 19.044687499999995-9.57  18.504687499999996-9.03L 18.504687499999996-9.03Q 18.654687499999998-8.15  19.234687499999996-7.71Q 19.824687499999996-7.28  20.634687499999995-7.06Q 21.434687499999995-6.84  22.264687499999997-6.76Q 23.094687499999996-6.69  23.774687499999995-6.54L 23.774687499999995-6.54Q 24.074687499999996-6.25  24.634687499999995-5.81Q 25.194687499999997-5.37  25.704687499999995-4.86Q 26.224687499999998-4.35  26.614687499999995-3.81Q 27.004687499999996-3.27  27.004687499999996-2.83L 27.004687499999996-2.83Q 27.004687499999996-2.34  26.634687499999995-2.25Q 26.264687499999997-2.15  25.834687499999998-2.1Q 25.394687499999996-2.05  25.024687499999995-1.9Q 24.654687499999998-1.76  24.654687499999998-1.27L 24.654687499999998-1.27Q 24.654687499999998-0.93  24.754687499999996-0.68L 24.754687499999996-0.68Q 22.414687499999996-0.59  20.194687499999997-0.22Q 17.964687499999997 0.15  15.724687499999996 0.68L 15.724687499999996 0.68Q 14.794687499999997 0.93  13.864687499999997 0.98Q 12.934687499999997 1.03  11.984687499999996 1.03Q 11.034687499999997 1.03  10.054687499999996 1.07Q 9.084687499999996 1.12  8.154687499999996 1.32L 8.154687499999996 1.32Q 7.474687499999996 1.46  6.784687499999997 1.46L 6.784687499999997 1.46Q 5.664687499999997 1.46  4.684687499999996 1.03Q 3.7146874999999966 0.59  2.9746874999999964-0.2Q 2.2446874999999964-0.98  1.8346874999999963-1.95Q 1.4146874999999965-2.93  1.4146874999999965-4.05L 1.4146874999999965-4.05Q 1.4146874999999965-5.13  2.0246874999999966-6.05Q 2.6346874999999965-6.98  3.904687499999996-6.98L 3.904687499999996-6.98Q 4.294687499999997-6.98  4.544687499999997-6.62Q 4.784687499999997-6.25  5.1746874999999966-6.25L 5.1746874999999966-6.25Q 5.374687499999997-6.25  5.514687499999996-6.47Q 5.664687499999997-6.69  5.834687499999997-6.98Q 6.004687499999997-7.28  6.294687499999997-7.52Q 6.5946874999999965-7.76  7.034687499999997-7.86L 7.034687499999997-7.86Q 8.394687499999996-8.06  9.304687499999996-8.79Q 10.204687499999997-9.52  10.694687499999997-10.57Q 11.184687499999997-11.62  11.374687499999997-12.87Q 11.574687499999996-14.11  11.574687499999996-15.33L 11.574687499999996-15.33Q 11.574687499999996-16.31  11.354687499999997-17.21Q 11.134687499999997-18.12  11.134687499999997-19.04L 11.134687499999997-19.04Q 11.134687499999997-20.31  11.594687499999996-21.66Q 12.064687499999996-23  12.064687499999996-24.66L 12.064687499999996-24.66Q 12.064687499999996-26.95  11.794687499999997-29.17Q 11.524687499999997-31.4  11.524687499999997-33.69L 11.524687499999997-33.69Q 11.524687499999997-35.4  11.714687499999997-37.16Q 11.914687499999996-38.92  11.914687499999996-40.63L 11.914687499999996-40.63Q 11.914687499999996-41.26  11.744687499999996-41.82Q 11.574687499999996-42.38  11.374687499999997-42.9Q 11.184687499999997-43.41  11.014687499999997-43.87Q 10.844687499999996-44.34  10.844687499999996-44.82L 10.844687499999996-44.82Q 10.844687499999996-45.8  11.184687499999997-46.78Q 11.524687499999997-47.75  11.524687499999997-48.73L 11.524687499999997-48.73Q 11.524687499999997-49.85  11.154687499999996-50.88Q 10.794687499999997-51.9  10.794687499999997-53.03L 10.794687499999997-53.03Q 10.794687499999997-53.86  10.964687499999997-54.71Q 11.134687499999997-55.57  11.134687499999997-56.45L 11.134687499999997-56.45Q 11.134687499999997-58.2  10.374687499999997-59.08Q 9.614687499999997-59.96  8.494687499999996-60.38Q 7.374687499999997-60.79  6.034687499999997-60.89Q 4.684687499999996-60.99  3.5646874999999962-61.21Q 2.4446874999999966-61.43  1.6846874999999963-61.96Q 0.9246874999999966-62.5  0.9246874999999966-63.72L 0.9246874999999966-63.72Q 0.9246874999999966-65.14  1.5646874999999965-66.04Q 2.1946874999999966-66.94  3.1746874999999966-67.43Q 4.154687499999996-67.92  5.324687499999996-68.09Q 6.494687499999997-68.26  7.614687499999996-68.26L 7.614687499999996-68.26Q 10.794687499999997-67.58  12.594687499999996-67.09Q 14.404687499999996-66.6  15.304687499999996-66.26Q 16.214687499999997-65.92  16.434687499999995-65.72Q 16.654687499999998-65.53  16.744687499999998-65.38L 16.744687499999998-65.38Q 17.044687499999995-64.5  17.264687499999997-62.74Q 17.484687499999996-60.99  17.624687499999997-59.06Q 17.774687499999995-57.13  17.844687499999996-55.35Q 17.924687499999997-53.56  17.924687499999997-52.69L 17.924687499999997-52.69Q 17.924687499999997-51.37  17.524687499999995-50.17Q 17.134687499999995-48.97  17.134687499999995-47.71L 17.134687499999995-47.71Q 17.134687499999995-46.34  17.504687499999996-45.07Q 17.874687499999997-43.8  17.964687499999997-42.43L 17.964687499999997-42.43Q 18.014687499999997-41.55  18.044687499999995-40.7Q 18.064687499999998-39.84  18.064687499999998-38.96L 18.064687499999998-38.96Q 18.064687499999998-37.7  18.044687499999995-36.38Q 18.014687499999997-35.06  18.014687499999997-33.74L 18.014687499999997-33.74Q 18.014687499999997-31.88  18.114687499999995-30.08Q 18.214687499999997-28.27  18.504687499999996-26.46L 18.504687499999996-26.46Q 18.754687499999996-26.37  18.944687499999997-26.37Q 19.144687499999996-26.37  19.384687499999995-26.37L 19.384687499999995-26.37Q 20.364687499999995-26.37  20.994687499999998-26.88Q 21.634687499999995-27.39  22.164687499999996-28.08Q 22.704687499999995-28.76  23.294687499999995-29.47Q 23.874687499999997-30.18  24.754687499999996-30.57L 24.754687499999996-30.57Q 25.924687499999997-31.05  26.734687499999996-32.01Q 27.534687499999997-32.96  28.274687499999995-33.98Q 29.004687499999996-35.01  29.804687499999996-35.91Q 30.614687499999995-36.82  31.784687499999997-37.3L 31.784687499999997-37.3Q 33.0046875-37.79  33.0046875-39.06L 33.0046875-39.06Q 33.0046875-39.79  32.81468749999999-40.5Q 32.6146875-41.21  32.34468749999999-41.89Q 32.0846875-42.58  31.884687499999995-43.29Q 31.684687499999995-43.99  31.684687499999995-44.73L 31.684687499999995-44.73L 31.734687499999996-45.26L 32.12468749999999-45.21L 32.2746875-45.21Q 32.4746875-45.21  32.6646875-45.24Q 32.8646875-45.26  32.8646875-45.46L 32.8646875-45.46Q 32.6146875-45.85  32.6146875-46.34L 32.6146875-46.34Q 32.6146875-47.02  32.934687499999995-47.22Q 33.2546875-47.41  33.8346875-47.41L 33.8346875-47.41Q 34.9146875-47.41  35.9146875-47.02Q 36.9146875-46.63  37.98468749999999-46.63L 37.98468749999999-46.63Q 38.764687499999994-46.63  39.4746875-46.85Q 40.184687499999995-47.07  40.9146875-47.34Q 41.654687499999994-47.61  42.3546875-47.83Q 43.06468749999999-48.05  43.84468749999999-48.05L 43.84468749999999-48.05Q 45.1646875-48.05  46.434687499999995-47.71Q 47.70468749999999-47.36  49.0246875-47.36L 49.0246875-47.36Q 50.3946875-47.36  51.70468749999999-47.75Q 53.0246875-48.14  54.4446875-48.14L 54.4446875-48.14Q 54.684687499999995-48.14  55.12468749999999-48Q 55.56468749999999-47.85  55.98468749999999-47.61Q 56.3946875-47.36  56.7146875-47.07Q 57.03468749999999-46.78  57.03468749999999-46.48L 57.03468749999999-46.48Q 56.934687499999995-46.14  56.6446875-46.02Q 56.34468749999999-45.9  56.34468749999999-45.7L 56.34468749999999-45.7Q 56.34468749999999-45.46  56.59468749999999-45.14Q 56.8346875-44.82  57.154687499999994-44.46Q 57.4746875-44.09  57.7146875-43.68Q 57.95468749999999-43.26  57.95468749999999-42.82L 57.95468749999999-42.82Q 57.95468749999999-42.19  56.78468749999999-41.6Q 55.6146875-41.02  54.074687499999996-40.55Q 52.53468749999999-40.09  51.074687499999996-39.82Q 49.6046875-39.55  49.0246875-39.55L 49.0246875-39.55Q 47.9946875-39.55  47.48468749999999-39.92Q 46.9746875-40.28  46.48468749999999-40.28L 46.48468749999999-40.28Q 45.70468749999999-40.28  44.48468749999999-39.67Q 43.264687499999994-39.06  41.87468749999999-38.09Q 40.4746875-37.11  39.06468749999999-35.86Q 37.6446875-34.62  36.4946875-33.4Q 35.3546875-32.18  34.59468749999999-31.05Q 33.8346875-29.93  33.8346875-29.2L 33.8346875-29.2Q 33.78468749999999-28.42  33.59468749999999-27.69Q 33.3946875-26.95  33.3946875-26.17L 33.3946875-26.17Q 33.3946875-25.49  33.8346875-25.05Q 34.2746875-24.61  34.8646875-24.24Q 35.4446875-23.88  36.0546875-23.44Q 36.67468749999999-23  36.9646875-22.36L 36.9646875-22.36Q 37.404687499999994-21.39  38.28468749999999-20.14Q 39.1646875-18.9  40.2146875-17.5Q 41.264687499999994-16.11  42.3346875-14.7Q 43.404687499999994-13.28  44.31468749999999-11.94Q 45.2146875-10.6  45.7746875-9.4Q 46.3346875-8.2  46.3346875-7.32L 46.3346875-7.32L 46.3346875-6.98Q 48.7746875-7.52  51.12468749999999-7.52L 51.12468749999999-7.52Q 52.73468749999999-7.52  54.324687499999996-7.35Q 55.904687499999994-7.18  57.4746875-6.98L 57.4746875-6.98L 57.4746875-6.54L 57.4746875-6.3Q 57.4746875-5.32  57.81468749999999-4.71Q 58.154687499999994-4.1  58.59468749999999-3.64Q 59.03468749999999-3.17  59.37468749999999-2.76Q 59.7146875-2.34  59.7146875-1.86Z" data-textpath="Ok" data-text-anchor="middle" data-font-size="100" data-letterspacing="0" data-side="left" data-offset="0" data-dx="0" data-dy="75" data-href="" data-font="Special Elite" data-font-src="/Content/clientfonts/specialelite.woff" data-font-scale="contain" transform="translate(0,75)" data-xmlspace="preserve" fill="url('#linearGradientSkjbxtknk89')">
</path>
<rect x="0" y="0" width="0" height="0">
</rect>
</g>
<g class="svg-text svg-visible" transform="matrix(1.2073,0,0,1.2073,805,512)" style="pointer-events: fill; cursor: move; opacity: 1;">
<path fill="none" style="" d="M-167.0166015625,80 C-20,79 20,79 167.0166015625,80">
</path>
<path d="M-162.2766015625-62.65L-162.2766015625-62.65Q-162.4766015625-62.4 -162.6966015625-62.21Q-162.9166015625-62.01 -163.2066015625-62.01L-163.2066015625-62.01Q-163.5466015625-62.01 -163.7666015625-62.3Q-163.9866015625-62.6 -163.9866015625-62.94L-163.9866015625-62.94Q-163.9866015625-62.99 -163.9366015625-63.09Q-163.8866015625-63.18 -163.8866015625-63.28L-163.8866015625-63.28L-163.5966015625-63.38Q-163.2066015625-63.38 -162.8666015625-63.13Q-162.5266015625-62.89 -162.2766015625-62.65ZM-148.3666015625-27.88L-148.3666015625-27.83L-148.3666015625-27.69Q-148.4166015625-27.83 -148.4166015625-27.95Q-148.4166015625-28.08 -148.4166015625-28.17L-148.4166015625-28.17L-148.3666015625-27.88ZM-114.3266015625-50.34L-114.3266015625-50.34Q-114.3266015625-49.61 -114.3766015625-48.68Q-114.4266015625-47.75 -114.5466015625-46.78Q-114.6766015625-45.8 -114.8466015625-44.9Q-115.0166015625-43.99 -115.25660156250001-43.31L-115.25660156250001-43.31Q-115.9466015625-41.65 -117.03660156250001-40.28Q-118.1366015625-38.92 -118.77660156249999-37.21L-118.77660156249999-37.21Q-118.9166015625-36.77 -119.6066015625-36.23Q-120.28660156250001-35.69 -121.1166015625-35.16Q-121.9466015625-34.62 -122.75660156250001-34.16Q-123.55660156249999-33.69 -123.99660156249999-33.4L-123.99660156249999-33.4Q-126.78660156250001-31.69 -129.5666015625-30.81Q-132.34660156249998-29.93 -135.5666015625-29.93L-135.5666015625-29.93L-135.8666015625-29.93Q-136.6466015625-30.37 -137.1566015625-30.52Q-137.6666015625-30.66 -138.59660156249998-30.66L-138.59660156249998-30.66Q-139.5266015625-30.66 -140.4066015625-30.62Q-141.2866015625-30.57 -142.1666015625-30.47L-142.1666015625-30.47Q-142.5066015625-30.42 -143.5066015625-30.1Q-144.5066015625-29.79 -145.5766015625-29.37Q-146.6566015625-28.96 -147.5066015625-28.54Q-148.3666015625-28.13 -148.3666015625-27.88L-148.3666015625-27.88L-148.3666015625-27.69Q-148.2666015625-27.34 -148.1166015625-27.34L-148.1166015625-27.34Q-147.8766015625-27.34 -147.6566015625-27.61Q-147.43660156250002-27.88 -147.1466015625-27.88L-147.1466015625-27.88Q-146.8966015625-27.88 -146.7566015625-27.64Q-146.6066015625-27.39 -146.5366015625-27.08Q-146.4566015625-26.76 -146.43660156250002-26.44Q-146.4066015625-26.12 -146.4066015625-25.98L-146.4066015625-25.98Q-146.4066015625-24.56 -146.7066015625-23.17Q-146.9966015625-21.78 -146.9966015625-20.36L-146.9966015625-20.36Q-146.9966015625-18.95 -147.0166015625-17.55Q-147.0466015625-16.16 -147.0466015625-14.75L-147.0466015625-14.75Q-147.0466015625-12.16 -146.7766015625-10.84Q-146.5066015625-9.52 -145.7266015625-8.86Q-144.9466015625-8.2 -143.5766015625-7.89Q-142.2166015625-7.57 -140.0166015625-6.98L-140.0166015625-6.98Q-140.1566015625-6.54 -140.1566015625-6.15L-140.1566015625-6.15Q-140.1566015625-5.57 -139.7966015625-5.3Q-139.4266015625-5.03 -139.0166015625-4.76Q-138.59660156249998-4.49 -138.2366015625-4.15Q-137.8666015625-3.81 -137.8666015625-3.08L-137.8666015625-3.08Q-137.8666015625-2.44 -138.3566015625-1.95L-138.3566015625-1.95Q-138.93660156250002-1.37 -139.1066015625-0.98Q-139.2866015625-0.59 -139.4266015625-0.37Q-139.5766015625-0.15 -139.9666015625-0.02Q-140.3566015625 0.1 -141.3866015625 0.15L-141.3866015625 0.15Q-143.7266015625 0.29 -146.0166015625 0.29L-146.0166015625 0.29Q-146.8966015625 0.29 -147.7766015625 0.27Q-148.6566015625 0.24 -149.5866015625 0.24L-149.5866015625 0.24Q-151.9266015625 0.24 -154.1766015625 0.39L-154.1766015625 0.39Q-155.5466015625 0.49 -156.8366015625 0.83Q-158.1266015625 1.17 -159.5466015625 1.17L-159.5466015625 1.17Q-161.1566015625 1.17 -161.7466015625 0.24Q-162.3266015625-0.68 -162.3266015625-2.15L-162.3266015625-2.15Q-162.3266015625-3.56 -161.6966015625-4.52Q-161.0566015625-5.47 -160.1066015625-6.08Q-159.1566015625-6.69 -158.0566015625-7.08Q-156.9566015625-7.47 -156.0066015625-7.84Q-155.0566015625-8.2 -154.4166015625-8.59Q-153.7866015625-8.98 -153.7866015625-9.62L-153.7866015625-9.62Q-153.7866015625-10.21 -154.0066015625-10.74Q-154.2266015625-11.28 -154.2266015625-11.87L-154.2266015625-11.87Q-154.2266015625-12.21 -153.8866015625-13.18Q-153.5366015625-14.16 -153.5366015625-15.48L-153.5366015625-15.48Q-153.5366015625-16.02 -153.5366015625-16.53Q-153.5366015625-17.04 -153.5866015625-17.58L-153.5866015625-17.58Q-153.8866015625-17.72 -154.0266015625-18.16Q-154.1766015625-18.6 -154.2466015625-19.12Q-154.3166015625-19.63 -154.3166015625-20.14Q-154.3166015625-20.65 -154.3166015625-20.95L-154.3166015625-20.95Q-154.3166015625-22.8 -154.0766015625-24.63Q-153.8366015625-26.46 -153.8366015625-28.32L-153.8366015625-28.32Q-153.8366015625-29.49 -153.9766015625-30.62Q-154.1266015625-31.74 -154.1266015625-32.91L-154.1266015625-32.91Q-154.1266015625-33.25 -153.9266015625-33.4L-153.9266015625-33.4Q-154.3666015625-33.74 -154.3666015625-34.38L-154.3666015625-34.38Q-154.3666015625-35.06 -154.1466015625-35.64Q-153.9266015625-36.23 -153.9266015625-36.87L-153.9266015625-36.87Q-153.9266015625-37.84 -154.1266015625-38.82Q-154.3166015625-39.79 -154.5366015625-40.75Q-154.7566015625-41.7 -154.9366015625-42.65Q-155.1066015625-43.6 -155.1066015625-44.58L-155.1066015625-44.58Q-155.1066015625-45.17 -154.9366015625-45.7Q-154.7566015625-46.24 -154.5866015625-46.8Q-154.4166015625-47.36 -154.2466015625-47.92Q-154.0766015625-48.49 -154.0766015625-49.12L-154.0766015625-49.12Q-154.0766015625-50.78 -154.3966015625-52.37Q-154.7166015625-53.96 -154.7166015625-55.62L-154.7166015625-55.62Q-154.7166015625-56.59 -154.2466015625-57.06Q-153.7866015625-57.52 -153.2466015625-57.81Q-152.7066015625-58.11 -152.2466015625-58.37Q-151.7866015625-58.64 -151.7866015625-59.18L-151.7866015625-59.18Q-151.7866015625-59.52 -152.0966015625-59.77Q-152.4166015625-60.01 -152.7066015625-60.01L-152.7066015625-60.01Q-153.3966015625-60.01 -153.8866015625-59.57Q-154.3666015625-59.13 -155.0066015625-59.13L-155.0066015625-59.13Q-155.3966015625-59.13 -155.7166015625-59.64Q-156.0266015625-60.16 -156.3966015625-60.74Q-156.7666015625-61.33 -157.2266015625-61.84Q-157.6866015625-62.35 -158.3266015625-62.35L-158.3266015625-62.35Q-158.8666015625-62.35 -159.3966015625-62.21Q-159.9366015625-62.06 -160.4766015625-62.06L-160.4766015625-62.06Q-161.2066015625-62.06 -161.3966015625-62.4Q-161.5966015625-62.74 -161.5966015625-63.28L-161.5966015625-63.28Q-161.5966015625-63.53 -161.5766015625-63.77Q-161.5466015625-64.01 -161.5466015625-64.26L-161.5466015625-64.26Q-161.5466015625-64.65 -161.6966015625-65.09Q-161.8366015625-65.53 -162.3766015625-65.53L-162.3766015625-65.53Q-162.6666015625-65.53 -162.9666015625-65.43L-162.9666015625-65.43Q-162.2766015625-66.31 -161.1566015625-66.77Q-160.0366015625-67.24 -158.7866015625-67.48Q-157.5466015625-67.72 -156.2466015625-67.85Q-154.9566015625-67.97 -153.9266015625-68.21L-153.9266015625-68.21Q-153.5366015625-68.31 -153.2266015625-68.36Q-152.9066015625-68.41 -152.5166015625-68.41L-152.5166015625-68.41Q-151.6366015625-68.41 -150.7766015625-68.24Q-149.9266015625-68.07 -149.09660156249998-68.07L-149.09660156249998-68.07Q-148.1666015625-68.07 -147.6066015625-68.48Q-147.0466015625-68.9 -146.2666015625-68.9L-146.2666015625-68.9Q-145.8766015625-68.7 -145.2366015625-68.43Q-144.6066015625-68.16 -144.2166015625-68.16L-144.2166015625-68.16Q-142.5566015625-68.16 -140.9466015625-68.36Q-139.3266015625-68.55 -137.7166015625-68.55L-137.7166015625-68.55Q-135.9666015625-68.55 -134.3266015625-68.09Q-132.68660156250002-67.63 -131.0566015625-67.04Q-129.4166015625-66.46 -127.80660156249999-65.87Q-126.1966015625-65.28 -124.4866015625-64.99L-124.4866015625-64.99Q-123.8966015625-64.89 -123.3366015625-64.55Q-122.77660156249999-64.21 -122.2366015625-63.75Q-121.7066015625-63.28 -121.1866015625-62.79Q-120.6766015625-62.3 -120.2366015625-61.96L-120.2366015625-61.96Q-119.55660156249999-61.43 -119.1366015625-60.74Q-118.72660156250001-60.06 -118.30660156249999-59.35Q-117.8966015625-58.64 -117.4366015625-57.98Q-116.9666015625-57.32 -116.2366015625-56.84L-116.2366015625-56.84Q-115.55660156249999-56.4 -115.1566015625-55.59Q-114.7666015625-54.79 -114.5966015625-53.86Q-114.4266015625-52.93 -114.3766015625-52Q-114.3266015625-51.07 -114.3266015625-50.34ZM-122.3866015625-47.36L-122.3866015625-47.36Q-122.3866015625-50.49 -123.3366015625-53.05Q-124.2966015625-55.62 -126.0766015625-57.45Q-127.8566015625-59.28 -130.3966015625-60.3Q-132.93660156250002-61.33 -136.0566015625-61.33L-136.0566015625-61.33Q-136.5466015625-61.33 -137.5266015625-61.33Q-138.4966015625-61.33 -139.6766015625-61.28Q-140.84660156249998-61.23 -142.1166015625-61.13Q-143.3866015625-61.04 -144.4566015625-60.86Q-145.5366015625-60.69 -146.3366015625-60.42Q-147.1466015625-60.16 -147.3866015625-59.77L-147.3866015625-59.77Q-147.7266015625-59.23 -148.3366015625-58.47Q-148.9466015625-57.71 -148.9466015625-57.13L-148.9466015625-57.13Q-148.9466015625-56.59 -148.6566015625-56.03Q-148.3666015625-55.47 -147.9966015625-54.83Q-147.6366015625-54.2 -147.3166015625-53.54Q-146.9966015625-52.88 -146.9966015625-52.2L-146.9966015625-52.2Q-147.3866015625-52.15 -147.7266015625-51.98Q-148.0666015625-51.81 -148.0666015625-51.37L-148.0666015625-51.37Q-148.0666015625-50.63 -147.6066015625-49.76Q-147.1466015625-48.88 -147.1466015625-47.95L-147.1466015625-47.95Q-147.1466015625-47.27 -147.43660156250002-46.9Q-147.7266015625-46.53 -148.0666015625-46.29Q-148.4166015625-46.04 -148.7066015625-45.8Q-148.9966015625-45.56 -148.9966015625-45.17L-148.9966015625-45.17Q-148.9966015625-44.73 -148.3666015625-43.7Q-147.7266015625-42.68 -146.9466015625-41.53Q-146.1666015625-40.38 -145.5366015625-39.43Q-144.8966015625-38.48 -144.8966015625-38.28L-144.8966015625-38.28Q-143.7266015625-38.13 -142.6066015625-38.13L-142.6066015625-38.13Q-141.8666015625-38.13 -140.18660156250002-38.21Q-138.4966015625-38.28 -136.6466015625-38.4Q-134.7866015625-38.53 -133.1766015625-38.67Q-131.5666015625-38.82 -130.9766015625-38.96L-130.9766015625-38.96Q-130.34660156249998-39.11 -130.1066015625-39.4Q-129.8566015625-39.7 -129.6166015625-39.99Q-129.3666015625-40.28 -129.0066015625-40.5Q-128.6366015625-40.72 -127.80660156249999-40.72L-127.80660156249999-40.72Q-126.2966015625-40.72 -125.24660156249999-41.26Q-124.1966015625-41.8 -123.55660156249999-42.7Q-122.9266015625-43.6 -122.6566015625-44.8Q-122.3866015625-46 -122.3866015625-47.36ZM-55.6443359375-8.54L-55.6443359375-8.54Q-55.6443359375-7.71 -55.9343359375-6.98Q-56.2243359375-6.25 -56.4743359375-5.47L-56.4743359375-5.47Q-56.6643359375-4.79 -56.7343359375-4.35Q-56.8143359375-3.91 -56.9543359375-3.59Q-57.1043359375-3.27 -57.4243359375-3Q-57.7343359375-2.73 -58.4243359375-2.39L-58.4243359375-2.39Q-59.8843359375-1.61 -61.5243359375-0.81Q-63.1543359375 0 -64.8143359375 0L-64.8143359375 0Q-66.23433593749999 0 -67.48433593749999-0.66Q-68.7243359375-1.32 -69.7743359375-2.12Q-70.8243359375-2.93 -71.68433593750001-3.61Q-72.5343359375-4.3 -73.1243359375-4.3L-73.1243359375-4.3Q-73.7543359375-4.3 -74.21433593750001-3.96Q-74.68433593750001-3.61 -75.1443359375-3.22Q-75.6143359375-2.83 -76.17433593749999-2.49Q-76.73433593749999-2.15 -77.5643359375-2.15L-77.5643359375-2.15Q-78.2443359375-2.15 -78.98433593749999-1.9Q-79.7143359375-1.66 -80.4443359375-1.34Q-81.1743359375-1.03 -81.9343359375-0.71Q-82.6943359375-0.39 -83.3243359375-0.2L-83.3243359375-0.2Q-85.5243359375 0.39 -87.7443359375 0.49Q-89.9643359375 0.59 -92.2143359375 0.59L-92.2143359375 0.59Q-92.7943359375 0.59 -94.0143359375 0.56Q-95.23433593749999 0.54 -96.48433593749999 0.32Q-97.73433593749999 0.1 -98.6843359375-0.39Q-99.6343359375-0.88 -99.6343359375-1.76L-99.6343359375-1.76Q-99.6343359375-1.95 -99.5843359375-2.1L-99.5843359375-2.1Q-99.9243359375-1.71 -100.3643359375-1.46Q-100.8043359375-1.22 -101.3443359375-1.22L-101.3443359375-1.22Q-102.1243359375-1.22 -103.2443359375-2.29Q-104.3743359375-3.37 -105.3943359375-4.79Q-106.4243359375-6.2 -107.1543359375-7.59Q-107.8843359375-8.98 -107.8843359375-9.67L-107.8843359375-9.67Q-107.8843359375-10.21 -107.5643359375-10.64Q-107.2543359375-11.08 -107.2543359375-11.62L-107.2543359375-11.62Q-107.2543359375-12.3 -107.4243359375-12.92Q-107.5943359375-13.53 -107.5943359375-14.21L-107.5943359375-14.21Q-107.5943359375-15.09 -107.2543359375-16.09Q-106.9043359375-17.09 -106.4243359375-18.09Q-105.9343359375-19.09 -105.3943359375-20.04Q-104.8543359375-21 -104.4143359375-21.83L-104.4143359375-21.83Q-103.9343359375-22.8 -103.0543359375-23.39Q-102.1743359375-23.97 -101.1943359375-24.41Q-100.2243359375-24.85 -99.2443359375-25.29Q-98.2643359375-25.73 -97.5343359375-26.46L-97.5343359375-26.46Q-96.8043359375-25.63 -95.6343359375-25.63L-95.6343359375-25.63Q-94.40433593750001-25.63 -93.23433593749999-26Q-92.0643359375-26.37 -90.8443359375-26.37L-90.8443359375-26.37Q-89.8643359375-26.37 -88.9643359375-26.17Q-88.0643359375-25.98 -87.0843359375-25.98L-87.0843359375-25.98Q-86.0143359375-25.98 -85.4943359375-26.25Q-84.98433593749999-26.51 -84.2043359375-27.2L-84.2043359375-27.2Q-83.4243359375-27.88 -82.2243359375-28.25Q-81.0343359375-28.61 -79.73433593749999-28.83Q-78.4443359375-29.05 -77.1443359375-29.3Q-75.8543359375-29.54 -74.8243359375-30Q-73.8043359375-30.47 -73.1643359375-31.27Q-72.5343359375-32.08 -72.5343359375-33.5L-72.5343359375-33.5Q-72.5343359375-35.06 -73.43433593750001-36.79Q-74.3443359375-38.53 -75.7543359375-39.97Q-77.17433593749999-41.41 -78.8843359375-42.33Q-80.5943359375-43.26 -82.15433593750001-43.26L-82.15433593750001-43.26Q-82.3443359375-43.26 -82.5443359375-43.21Q-82.73433593749999-43.16 -82.8843359375-43.16L-82.8843359375-43.16Q-84.0543359375-42.97 -85.5243359375-42.9Q-86.98433593749999-42.82 -88.2543359375-42.46Q-89.5243359375-42.09 -90.40433593750001-41.24Q-91.2843359375-40.38 -91.2843359375-38.72L-91.2843359375-38.72Q-91.2843359375-37.74 -91.1143359375-36.79Q-90.9443359375-35.84 -90.9443359375-34.86L-90.9443359375-34.86Q-90.9443359375-33.4 -91.65433593750001-32.42Q-92.3543359375-31.45 -93.4543359375-30.86Q-94.5543359375-30.27 -95.8743359375-30.05Q-97.1943359375-29.83 -98.4143359375-29.83L-98.4143359375-29.83Q-99.8743359375-29.83 -100.9543359375-30.22Q-102.0243359375-30.62 -102.7143359375-32.03L-102.7143359375-32.03Q-103.2443359375-33.06 -103.8543359375-34.25Q-104.4643359375-35.45 -104.4643359375-36.67L-104.4643359375-36.67Q-104.4643359375-37.99 -104.0043359375-39.14Q-103.5443359375-40.28 -102.9543359375-41.38Q-102.3643359375-42.48 -101.8043359375-43.58Q-101.2443359375-44.68 -101.0043359375-45.95L-101.0043359375-45.95Q-100.65433593750001-46.14 -100.0443359375-46.34Q-99.4343359375-46.53 -98.73433593749999-46.73Q-98.0243359375-46.92 -97.3643359375-47.09Q-96.7043359375-47.27 -96.2643359375-47.41L-96.2643359375-47.41Q-95.0943359375-47.75 -93.9943359375-48.22Q-92.8943359375-48.68 -91.7443359375-49.07Q-90.6043359375-49.46 -89.4543359375-49.76Q-88.3043359375-50.05 -87.0843359375-50.1L-87.0843359375-50.1L-85.5743359375-50.15Q-83.4743359375-50.15 -81.2743359375-49.78Q-79.0743359375-49.41 -76.9743359375-48.63Q-74.8743359375-47.85 -72.9943359375-46.7Q-71.1143359375-45.56 -69.65433593750001-43.99L-69.65433593750001-43.99Q-68.5743359375-42.82 -67.8743359375-41.24Q-67.1643359375-39.65 -66.7443359375-37.89Q-66.3343359375-36.13 -66.1643359375-34.35Q-65.9943359375-32.57 -65.9943359375-31.05L-65.9943359375-31.05Q-65.9943359375-29 -66.1143359375-27.03Q-66.23433593749999-25.05 -66.23433593749999-23L-66.23433593749999-23Q-66.23433593749999-21.04 -66.0143359375-19.12Q-65.7943359375-17.19 -65.5043359375-15.26Q-65.21433593750001-13.33 -64.9943359375-11.4Q-64.7743359375-9.47 -64.7743359375-7.57L-64.7743359375-7.57Q-64.67433593749999-6.4 -64.45433593749999-6.13Q-64.23433593749999-5.86 -63.9843359375-5.86L-63.9843359375-5.86Q-62.9143359375-5.86 -62.2543359375-6.52Q-61.5943359375-7.18 -61.0643359375-7.98Q-60.5243359375-8.79 -59.8843359375-9.47Q-59.2543359375-10.16 -58.2743359375-10.16L-58.2743359375-10.16Q-57.8343359375-10.16 -57.3743359375-10.11Q-56.9043359375-10.06 -56.5143359375-9.89Q-56.1243359375-9.72 -55.8843359375-9.4Q-55.6443359375-9.08 -55.6443359375-8.54ZM-71.70433593749999-20.7L-71.70433593749999-20.7Q-71.70433593749999-21 -71.7243359375-21.73Q-71.7543359375-22.46 -71.8543359375-23.22Q-71.9443359375-23.97 -72.1643359375-24.56Q-72.3843359375-25.15 -72.8243359375-25.15L-72.8243359375-25.15Q-72.92433593749999-25.15 -73.0743359375-25.07Q-73.21433593750001-25 -73.3143359375-25L-73.3143359375-25Q-75.17433593749999-23.97 -76.48433593749999-23.32Q-77.8043359375-22.66 -79.1043359375-22.24Q-80.3943359375-21.83 -81.8643359375-21.68Q-83.3243359375-21.53 -85.5243359375-21.53L-85.5243359375-21.53Q-85.8143359375-21.53 -87.1343359375-21.29Q-88.4543359375-21.04 -90.0143359375-20.73Q-91.5743359375-20.41 -92.9443359375-20.09Q-94.3143359375-19.78 -94.65433593750001-19.68L-94.65433593750001-19.68Q-95.2843359375-19.43 -95.5543359375-19.19Q-95.8243359375-18.95 -95.9743359375-18.65Q-96.1143359375-18.36 -96.2643359375-18.04Q-96.4143359375-17.72 -96.8043359375-17.38L-96.8043359375-17.38Q-97.2943359375-16.99 -97.8543359375-16.75Q-98.4143359375-16.5 -98.90433593750001-16.02L-98.90433593750001-16.02Q-99.6343359375-15.28 -100.2643359375-14.09Q-100.90433593750001-12.89 -100.90433593750001-11.82L-100.90433593750001-11.82Q-100.90433593750001-10.5 -100.2243359375-9.47Q-99.5343359375-8.45 -98.4143359375-7.71Q-97.2943359375-6.98 -95.8743359375-6.45Q-94.4543359375-5.91 -93.0143359375-5.62Q-91.5743359375-5.32 -90.23433593749999-5.18Q-88.8943359375-5.03 -87.9143359375-5.03L-87.9143359375-5.03Q-86.7443359375-5.03 -85.1343359375-5.2Q-83.5243359375-5.37 -81.90433593750001-5.74Q-80.2943359375-6.1 -78.8843359375-6.74Q-77.46433593750001-7.37 -76.6343359375-8.35L-76.6343359375-8.35Q-76.2943359375-8.74 -76.1443359375-9.06Q-76.0043359375-9.38 -75.8343359375-9.69Q-75.65433593750001-10.01 -75.4443359375-10.35Q-75.2243359375-10.69 -74.73433593749999-11.08L-74.73433593749999-11.08Q-73.6043359375-12.01 -72.9943359375-13.13Q-72.3843359375-14.26 -72.0943359375-15.48Q-71.8043359375-16.7 -71.7543359375-18.02Q-71.70433593749999-19.34 -71.70433593749999-20.7ZM 1.3886328124999991-35.64L 1.3886328124999991-35.64Q 1.3886328124999991-34.67  0.9986328124999986-33.98Q 0.608632812499998-33.3  0.14863281249999716-32.69Q-0.3213671875000017-32.08 -0.7813671875000026-31.45Q-1.2413671875000034-30.81 -1.391367187500002-29.93L-1.391367187500002-29.93Q-1.8313671874999997-30.13 -2.2913671875000006-30.18Q-2.7613671874999994-30.22 -3.2513671875000014-30.22L-3.2513671875000014-30.22Q-4.421367187500003-30.22 -5.571367187500002-30.05Q-6.711367187500002-29.88 -7.841367187499998-29.88L-7.841367187499998-29.88Q-9.1513671875-29.88 -10.0113671875-30.69Q-10.8613671875-31.49 -11.381367187499997-32.67Q-11.891367187500002-33.84 -12.0813671875-35.18Q-12.281367187500003-36.52 -12.281367187500003-37.6L-12.281367187500003-37.6Q-12.281367187500003-38.96 -11.841367187499998-40.38L-11.841367187499998-40.38Q-12.231367187499998-40.53 -12.521367187499997-40.53L-12.521367187499997-40.53Q-13.161367187499998-40.53 -13.431367187500001-40.14Q-13.6913671875-39.75 -14.181367187500001-39.75L-14.181367187500001-39.75Q-14.621367187499999-39.75 -14.961367187500002-40.06Q-15.311367187499997-40.38 -15.7913671875-40.38L-15.7913671875-40.38Q-16.531367187500003-40.38 -17.631367187499997-39.92Q-18.7213671875-39.45 -19.7513671875-38.72Q-20.771367187499997-37.99 -21.531367187500003-37.13Q-22.2913671875-36.28 -22.2913671875-35.5L-22.2913671875-35.5Q-23.3113671875-35.4 -24.2213671875-34.94Q-25.1213671875-34.47 -25.9513671875-33.94L-25.9513671875-33.94Q-26.5913671875-33.54 -27.0213671875-32.71Q-27.4613671875-31.88 -27.8313671875-30.93Q-28.2013671875-29.98 -28.5613671875-29Q-28.9313671875-28.03 -29.4213671875-27.39L-29.4213671875-27.39Q-30.2513671875-26.32 -30.8613671875-25.22Q-31.4713671875-24.12 -31.4713671875-22.75L-31.4713671875-22.75Q-31.4713671875-21.04 -30.9313671875-19.29Q-30.3913671875-17.53 -30.3913671875-15.72L-30.3913671875-15.72Q-30.3913671875-14.55 -30.5713671875-13.38Q-30.7413671875-12.21 -30.7413671875-11.08L-30.7413671875-11.08Q-30.7413671875-9.72 -30.2513671875-8.89Q-29.7613671875-8.06 -28.9313671875-7.59Q-28.1013671875-7.13 -27.0213671875-6.98Q-25.9513671875-6.84 -24.8313671875-6.84L-24.8313671875-6.84Q-23.6113671875-6.84 -22.461367187500002-6.91Q-21.311367187499997-6.98 -20.341367187499998-6.98L-20.341367187499998-6.98Q-19.991367187500003-6.59 -19.9413671875-6.25Q-19.9013671875-5.91 -19.9713671875-5.54Q-20.0413671875-5.18 -20.161367187499998-4.81Q-20.2913671875-4.44 -20.2913671875-3.96L-20.2913671875-3.96Q-20.2913671875-3.76 -20.1913671875-3.47L-20.1913671875-3.47Q-19.461367187500002-3.47 -18.921367187500003-3.81Q-18.381367187499997-4.15 -18.141367187500002-4.88L-18.141367187500002-4.88Q-17.8013671875-4.79 -17.531367187500003-4.59Q-17.2613671875-4.39 -17.2613671875-4L-17.2613671875-4Q-17.2613671875-3.71 -17.411367187499998-3.44Q-17.5513671875-3.17 -17.7513671875-2.93Q-17.9413671875-2.69 -18.091367187499998-2.42Q-18.241367187500003-2.15 -18.241367187500003-1.81L-18.241367187500003-1.81Q-18.241367187500003-1.61 -18.1913671875-1.39Q-18.141367187500002-1.17 -18.0413671875-1.03L-18.0413671875-1.03Q-18.281367187500003-0.63 -18.7213671875-0.49Q-19.161367187499998-0.34 -19.601367187500003-0.34L-19.601367187500003-0.34Q-20.381367187499997-0.34 -20.9013671875-0.59Q-21.411367187499998-0.83 -21.8213671875-1.12Q-22.241367187500003-1.42 -22.5813671875-1.66Q-22.921367187500003-1.9 -23.4113671875-1.9L-23.4113671875-1.9Q-23.6113671875-1.9 -24.0013671875-1.81Q-24.3913671875-1.71 -24.7813671875-1.56Q-25.1713671875-1.42 -25.4613671875-1.2Q-25.7613671875-0.98 -25.7613671875-0.78L-25.7613671875-0.78Q-25.7613671875-0.39 -25.4913671875-0.1Q-25.2213671875 0.2 -25.2213671875 0.59L-25.2213671875 0.59Q-25.2213671875 0.93 -25.4613671875 1.12Q-25.7113671875 1.32 -26.0513671875 1.39Q-26.3913671875 1.46 -26.7613671875 1.49Q-27.1213671875 1.51 -27.3713671875 1.51L-27.3713671875 1.51Q-29.2713671875 1.51 -31.1513671875 1.1Q-33.031367187499995 0.68 -34.9413671875 0.68L-34.9413671875 0.68Q-35.8113671875 0.68 -36.6913671875 1.07Q-37.5713671875 1.46 -38.5513671875 1.46L-38.5513671875 1.46Q-39.0913671875 1.46 -39.3513671875 1.25Q-39.6213671875 1.03 -39.8213671875 0.73Q-40.0113671875 0.44 -40.2613671875 0.22Q-40.5013671875 0 -40.9913671875 0L-40.9913671875 0Q-41.921367187499996 0 -42.8213671875 0.2Q-43.7213671875 0.39 -44.631367187500004 0.61Q-45.5313671875 0.83 -46.4313671875 1Q-47.3413671875 1.17 -48.2713671875 1.17L-48.2713671875 1.17Q-48.7513671875 1.17 -49.4413671875 1.05Q-50.1213671875 0.93 -50.7613671875 0.63Q-51.3913671875 0.34 -51.8313671875-0.1Q-52.2713671875-0.54 -52.2713671875-1.17L-52.2713671875-1.17Q-52.2713671875-1.56 -51.8113671875-2.2Q-51.3413671875-2.83 -50.7613671875-3.44Q-50.171367187499996-4.05 -49.5813671875-4.49Q-49.0013671875-4.93 -48.7013671875-4.93L-48.7013671875-4.93Q-47.921367187499996-4.93 -47.171367187499996-4.88Q-46.4113671875-4.83 -45.5813671875-4.83L-45.5813671875-4.83Q-44.2613671875-4.83 -42.921367187499996-5.25Q-41.5813671875-5.66 -40.4813671875-6.45Q-39.381367187500004-7.23 -38.6913671875-8.4Q-38.0113671875-9.57 -38.0113671875-11.04L-38.0113671875-11.04Q-38.0113671875-11.67 -38.1113671875-12.28Q-38.2113671875-12.89 -38.2113671875-13.53L-38.2113671875-13.53Q-38.2113671875-14.79 -37.911367187500005-16.06Q-37.6213671875-17.33 -37.6213671875-18.6L-37.6213671875-18.6Q-37.6213671875-20.31 -37.9913671875-22.09Q-38.3513671875-23.88 -38.3513671875-25.68L-38.3513671875-25.68Q-38.3513671875-27.29 -38.281367187499995-28.88Q-38.2113671875-30.47 -38.2113671875-32.08L-38.2113671875-32.08Q-38.2113671875-32.81 -38.2613671875-34.23Q-38.3013671875-35.64 -38.5713671875-37.06Q-38.8413671875-38.48 -39.4013671875-39.55Q-39.9613671875-40.63 -40.9413671875-40.63L-40.9413671875-40.63Q-42.0213671875-40.63 -43.0913671875-40.38Q-44.1613671875-40.14 -45.2913671875-40.14L-45.2913671875-40.14Q-46.1213671875-40.14 -47.2413671875-40.26Q-48.3613671875-40.38 -49.3913671875-40.75Q-50.4113671875-41.11 -51.1513671875-41.8Q-51.8813671875-42.48 -51.8813671875-43.6L-51.8813671875-43.6Q-51.8813671875-44.82 -51.5413671875-45.58Q-51.1913671875-46.34 -50.631367187500004-46.73Q-50.0713671875-47.12 -49.3213671875-47.27Q-48.5613671875-47.41 -47.6813671875-47.41L-47.6813671875-47.41Q-46.9013671875-47.41 -46.0713671875-47.36Q-45.2413671875-47.31 -44.4613671875-47.31L-44.4613671875-47.31Q-42.8913671875-47.31 -41.3613671875-47.49Q-39.8213671875-47.66 -38.2613671875-47.66L-38.2613671875-47.66Q-37.1813671875-47.66 -36.1113671875-47.56Q-35.031367187499995-47.46 -34.0113671875-47.12L-34.0113671875-47.12Q-33.0813671875-46.83 -32.641367187499995-46.02Q-32.2013671875-45.21 -31.8313671875-44.38Q-31.4713671875-43.55 -30.9813671875-42.9Q-30.4913671875-42.24 -29.4213671875-42.24L-29.4213671875-42.24Q-28.9313671875-42.24 -28.5113671875-42.5Q-28.1013671875-42.77 -27.7113671875-43.12Q-27.3213671875-43.46 -26.9313671875-43.75Q-26.5413671875-44.04 -26.0013671875-44.14L-26.0013671875-44.14Q-24.9313671875-44.29 -24.0213671875-44.82Q-23.1213671875-45.36 -22.241367187500003-45.9Q-21.3613671875-46.44 -20.461367187500002-46.88Q-19.5513671875-47.31 -18.4813671875-47.31L-18.4813671875-47.31Q-17.851367187500003-47.31 -16.891367187500002-47.46Q-15.9413671875-47.61 -14.991367187500003-47.88Q-14.0413671875-48.14 -13.181367187500001-48.54Q-12.3313671875-48.93 -11.841367187499998-49.41L-11.841367187499998-49.41Q-10.521367187499997-49.32 -8.741367187500003-48.78Q-6.961367187500002-48.24 -5.321367187500002-47.34Q-3.691367187499999-46.44 -2.4613671875000023-45.21Q-1.2413671875000034-43.99 -1.0513671874999986-42.48L-1.0513671874999986-42.48Q-0.9013671875-41.55 -0.5113671874999994-40.72Q-0.12136718749999886-39.89  0.2886328124999977-39.09Q 0.7086328124999994-38.28  1.0486328125000028-37.43Q 1.3886328124999991-36.57  1.3886328124999991-35.64ZM 50.8087890625-14.94L 50.8087890625-14.94Q 50.8087890625-14.31  50.5887890625-13.7Q 50.3687890625-13.09  50.0687890625-12.48Q 49.778789062499996-11.87  49.5087890625-11.28Q 49.23878906249999-10.69  49.1487890625-10.06L 49.1487890625-10.06Q 48.8987890625-8.74  48.1487890625-7.69Q 47.388789062499995-6.64  46.40878906249999-5.71Q 45.43878906249999-4.79  44.358789062499994-3.93Q 43.2887890625-3.08  42.4587890625-2.2L 42.4587890625-2.2Q 41.718789062499994-1.46  40.888789062499995-1.46L 40.888789062499995-1.46Q 40.40878906249999-1.46  39.968789062499994-1.56Q 39.528789062499996-1.66  39.0387890625-1.66L 39.0387890625-1.66Q 38.358789062499994-1.66  37.93878906249999-1.42Q 37.528789062499996-1.17  37.15878906249999-0.9Q 36.7887890625-0.63  36.278789062499996-0.39Q 35.76878906249999-0.15  34.888789062499995-0.15L 34.888789062499995-0.15Q 34.248789062499995-0.15  33.6687890625 0.2Q 33.07878906249999 0.54  32.498789062499995 0.54L 32.498789062499995 0.54Q 31.668789062499997 0.54  30.568789062499995 0.05Q 29.468789062499997-0.44  28.148789062499997-0.44L 28.148789062499997-0.44Q 27.318789062499995-0.44  26.488789062499997-0.37Q 25.658789062499995-0.29  24.828789062499997-0.29L 24.828789062499997-0.29Q 24.098789062499996-0.29  23.388789062499995-0.51Q 22.678789062499998-0.73  22.018789062499998-1Q 21.358789062499998-1.27  20.678789062499998-1.49Q 19.998789062499995-1.71  19.258789062499996-1.71L 19.258789062499996-1.71Q 17.798789062499996-1.71  16.768789062499998-0.98Q 15.748789062499997-0.24  14.938789062499996 0.66Q 14.138789062499997 1.56  13.328789062499997 2.29Q 12.528789062499996 3.03  11.498789062499997 3.03L 11.498789062499997 3.03Q 10.568789062499995 3.03  10.258789062499996 2.71Q 9.938789062499996 2.39  9.858789062499996 1.95Q 9.788789062499998 1.51  9.738789062499997 1Q 9.688789062499996 0.49  9.298789062499996 0.1L 9.298789062499996 0.1Q 8.568789062499995-0.68  8.328789062499997-1.34Q 8.078789062499997-2  8.078789062499997-3.08L 8.078789062499997-3.08Q 8.078789062499997-5.42  8.498789062499997-7.64Q 8.908789062499997-9.86  8.908789062499997-12.21L 8.908789062499997-12.21Q 8.908789062499997-13.04  8.718789062499997-13.82Q 8.518789062499996-14.6  8.248789062499997-15.23Q 7.978789062499996-15.87  7.788789062499997-16.31Q 7.5887890624999965-16.75  7.5887890624999965-16.94L 7.5887890624999965-16.94Q 7.5887890624999965-17.38  7.8387890624999965-17.87Q 8.078789062499997-18.36  8.398789062499997-18.77Q 8.718789062499997-19.19  9.078789062499997-19.46Q 9.448789062499998-19.73  9.688789062499996-19.73L 9.688789062499996-19.73Q 10.178789062499996-19.73  10.548789062499996-19.48Q 10.908789062499997-19.24  11.278789062499996-18.97Q 11.648789062499997-18.7  12.008789062499996-18.46Q 12.378789062499996-18.21  12.918789062499997-18.21L 12.918789062499997-18.21Q 13.008789062499996-18.21  13.058789062499997-18.24Q 13.108789062499996-18.26  13.208789062499996-18.26L 13.208789062499996-18.26Q 13.888789062499997-17.14  14.278789062499996-15.84Q 14.668789062499997-14.55  15.088789062499997-13.31Q 15.498789062499997-12.06  16.108789062499994-10.91Q 16.718789062499997-9.77  17.848789062499996-8.89L 17.848789062499996-8.89Q 18.138789062499995-8.64  18.528789062499996-8.35Q 18.918789062499997-8.06  19.338789062499995-7.76Q 19.748789062499995-7.47  20.168789062499997-7.28Q 20.578789062499997-7.08  20.918789062499997-7.08L 20.918789062499997-7.08Q 21.458789062499996-7.08  21.968789062499997-7.18Q 22.488789062499997-7.28  23.018789062499998-7.28L 23.018789062499998-7.28Q 23.758789062499996-7.28  23.758789062499996-6.79L 23.758789062499996-6.79Q 23.758789062499996-6.69  23.658789062499995-6.4L 23.658789062499995-6.4L 24.238789062499997-6.4L 24.588789062499995-6.4Q 26.438789062499996-6.4  28.298789062499996-6.84Q 30.148789062499997-7.28  32.0587890625-7.28L 32.0587890625-7.28Q 32.93878906249999-7.28  33.8387890625-7.1Q 34.7387890625-6.93  35.468789062499994-6.4L 35.468789062499994-6.4Q 36.3987890625-6.84  37.0387890625-7.52Q 37.6687890625-8.2  38.3087890625-8.86Q 38.93878906249999-9.52  39.718789062499994-10.03Q 40.498789062499995-10.55  41.718789062499994-10.6L 41.718789062499994-10.6Q 41.968789062499994-10.89  41.98878906249999-11.28Q 42.01878906249999-11.67  42.01878906249999-12.04Q 42.01878906249999-12.4  42.0887890625-12.74Q 42.15878906249999-13.09  42.4587890625-13.38L 42.4587890625-13.38Q 42.9487890625-13.82  43.2087890625-14.28Q 43.4787890625-14.75  43.4787890625-15.43L 43.4787890625-15.43Q 43.4787890625-16.75  42.748789062499995-17.9Q 42.01878906249999-19.04  40.8687890625-20Q 39.718789062499994-20.95  38.2287890625-21.7Q 36.73878906249999-22.46  35.2087890625-23Q 33.6687890625-23.54  32.248789062499995-23.8Q 30.838789062499995-24.07  29.758789062499996-24.07L 29.758789062499996-24.07Q 28.538789062499998-24.07  27.338789062499995-23.85Q 26.148789062499997-23.63  25.028789062499996-23.1L 25.028789062499996-23.1Q 25.028789062499996-24.17  24.538789062499998-24.51Q 24.048789062499996-24.85  23.368789062499996-25Q 22.678789062499998-25.15  21.968789062499997-25.42Q 21.268789062499998-25.68  20.878789062499997-26.61L 20.878789062499997-26.61Q 20.048789062499996-25.54  18.798789062499996-25.05Q 17.548789062499996-24.56  16.288789062499994-24.56L 16.288789062499994-24.56Q 15.018789062499996-24.56  13.938789062499996-25.05Q 12.868789062499996-25.54  12.008789062499996-26.37Q 11.158789062499997-27.2  10.648789062499997-28.27Q 10.128789062499997-29.35  10.078789062499997-30.57L 10.078789062499997-30.57Q 10.038789062499998-31.4  9.738789062499997-32.03Q 9.448789062499998-32.67  9.108789062499996-33.25Q 8.768789062499996-33.84  8.498789062499997-34.47Q 8.228789062499995-35.11  8.228789062499995-35.99L 8.228789062499995-35.99Q 8.228789062499995-38.18  8.448789062499998-39.43Q 8.668789062499997-40.67  9.008789062499996-41.33Q 9.348789062499996-41.99  9.768789062499996-42.26Q 10.178789062499996-42.53  10.618789062499996-42.8Q 11.058789062499997-43.07  11.448789062499996-43.55Q 11.838789062499997-44.04  12.088789062499997-45.12L 12.088789062499997-45.12Q 12.228789062499997-45.85  12.528789062499996-46.09Q 12.818789062499997-46.34  13.548789062499996-46.44L 13.548789062499996-46.44Q 14.188789062499996-46.53  14.378789062499996-46.73Q 14.578789062499997-46.92  14.648789062499997-47.17Q 14.718789062499997-47.41  14.818789062499997-47.68Q 14.918789062499997-47.95  15.308789062499997-48.19L 15.308789062499997-48.19Q 16.328789062499997-48.88  17.3387890625-49.05Q 18.3387890625-49.22  19.408789062499995-49.22L 19.408789062499995-49.22Q 20.048789062499996-49.22  20.628789062499997-49.19Q 21.218789062499997-49.17  21.898789062499997-49.17L 21.898789062499997-49.17Q 23.948789062499998-49.17  25.898789062499997-49.37Q 27.858789062499998-49.56  29.908789062499995-49.56L 29.908789062499995-49.56Q 31.468789062499997-49.56  32.7587890625-49.24Q 34.0587890625-48.93  35.0387890625-48.54Q 36.0087890625-48.14  36.718789062499994-47.83Q 37.4287890625-47.51  37.8687890625-47.51L 37.8687890625-47.51Q 38.6987890625-47.51  39.4487890625-47.83Q 40.2087890625-48.14  41.0387890625-48.19L 41.0387890625-48.19Q 41.4287890625-47.85  41.93878906249999-47.58Q 42.4587890625-47.31  42.98878906249999-47.31L 42.98878906249999-47.31Q 43.388789062499995-47.31  43.57878906249999-47.56Q 43.778789062499996-47.8  43.8187890625-48.19L 43.8187890625-48.19Q 44.5087890625-48  45.138789062499995-47.51Q 45.778789062499996-47.02  46.2887890625-46.36Q 46.79878906249999-45.7  47.0987890625-44.95Q 47.388789062499995-44.19  47.388789062499995-43.51L 47.388789062499995-43.51Q 47.388789062499995-41.7  47.1187890625-39.92Q 46.8487890625-38.13  46.8487890625-36.33L 46.8487890625-36.33Q 46.8487890625-34.47  47.3387890625-32.86L 47.3387890625-32.86Q 46.65878906249999-32.32  45.8487890625-31.91Q 45.04878906249999-31.49  44.5087890625-30.76L 44.5087890625-30.76L 44.4587890625-30.81Q 44.1187890625-31.1  43.5987890625-31.57Q 43.0887890625-32.03  42.528789062499996-32.47Q 41.968789062499994-32.91  41.4287890625-33.23Q 40.888789062499995-33.54  40.4587890625-33.54L 40.4587890625-33.54L 40.358789062499994-33.54Q 40.108789062499994-33.69  39.93878906249999-33.89Q 39.76878906249999-34.08  39.76878906249999-34.38L 39.76878906249999-34.38Q 39.76878906249999-34.86  40.0587890625-35.25Q 40.358789062499994-35.64  40.358789062499994-36.13L 40.358789062499994-36.13Q 40.358789062499994-36.28  39.9187890625-36.82Q 39.4787890625-37.35  38.9187890625-37.92Q 38.358789062499994-38.48  37.8187890625-38.94Q 37.278789062499996-39.4  37.0387890625-39.45L 37.0387890625-39.45Q 36.54878906249999-39.55  36.0087890625-39.79Q 35.468789062499994-40.04  34.93878906249999-40.28Q 34.3987890625-40.53  33.93878906249999-40.72Q 33.468789062499994-40.92  33.1787890625-40.92L 33.1787890625-40.92Q 32.54878906249999-40.92  31.908789062499995-40.75Q 31.278789062499996-40.58  30.588789062499995-40.53L 30.588789062499995-40.53L 30.638789062499995-40.53L 28.438789062499996-40.77Q 26.828789062499997-40.97  25.268789062499998-41.55Q 23.708789062499996-42.14  22.048789062499996-42.14L 22.048789062499996-42.14Q 20.578789062499997-42.14  19.898789062499997-41.46Q 19.218789062499997-40.77  18.778789062499996-39.92Q 18.3387890625-39.06  17.898789062499997-38.38Q 17.458789062499996-37.7  16.428789062499995-37.7L 16.428789062499995-37.7Q 16.138789062499995-37.7  15.988789062499997-37.74L 15.988789062499997-37.74Q 16.4787890625-36.18  16.898789062499997-35.11Q 17.308789062499997-34.03  17.898789062499997-33.18Q 18.4787890625-32.32  19.358789062499998-31.57Q 20.238789062499997-30.81  21.608789062499998-29.93L 21.608789062499998-29.93Q 21.748789062499995-29.83  22.018789062499998-29.59Q 22.288789062499998-29.35  22.578789062499997-29.08Q 22.878789062499997-28.81  23.148789062499997-28.61Q 23.408789062499995-28.42  23.558789062499997-28.42L 23.558789062499997-28.42Q 24.388789062499995-28.42  25.148789062499997-28.81Q 25.898789062499997-29.2  26.728789062499995-29.2L 26.728789062499995-29.2Q 27.318789062499995-29.2  27.828789062499997-28.93Q 28.348789062499996-28.66  28.928789062499998-28.66L 28.928789062499998-28.66Q 29.518789062499998-28.66  30.048789062499996-28.88Q 30.588789062499995-29.1  31.228789062499995-29.1L 31.228789062499995-29.1Q 31.468789062499997-29.1  31.738789062499997-29.05Q 32.0087890625-29  32.248789062499995-28.96L 32.248789062499995-28.96Q 33.718789062499994-28.56  35.1787890625-28.59Q 36.6487890625-28.61  38.15878906249999-28.56L 38.15878906249999-28.56Q 39.2287890625-28.56  40.32878906249999-28.17Q 41.4287890625-27.78  42.4587890625-27.17Q 43.4787890625-26.56  44.358789062499994-25.78Q 45.23878906249999-25  45.87878906249999-24.17L 45.87878906249999-24.17Q 46.358789062499994-23.49  46.9487890625-22.95Q 47.5387890625-22.41  48.0987890625-21.85Q 48.65878906249999-21.29  49.0987890625-20.65Q 49.5387890625-20.02  49.7287890625-19.19L 49.7287890625-19.19Q 49.9787890625-18.21  50.388789062499995-17.04Q 50.8087890625-15.87  50.8087890625-14.94ZM 104.8119140625-10.21L 104.8119140625-10.21Q 104.8119140625-8.89  104.39191406249998-7.96Q 103.98191406249998-7.03  103.32191406249999-6.3Q 102.66191406249999-5.57  101.80191406249999-4.93Q 100.95191406249998-4.3  100.07191406249999-3.56L 100.07191406249999-3.56Q 99.39191406249998-2.98  98.85191406249999-2.69Q 98.3119140625-2.39  97.80191406249999-2.2Q 97.29191406249998-2  96.73191406249998-1.81Q 96.17191406249998-1.61  95.43191406249998-1.27L 95.43191406249998-1.27Q 94.46191406249999-0.78  93.80191406249999-0.37Q 93.14191406249998 0.05  92.48191406249998 0.39Q 91.82191406249999 0.73  91.04191406249998 0.95Q 90.26191406249998 1.17  89.0919140625 1.32L 89.0919140625 1.32Q 87.13191406249999 1.56  85.15191406249998 1.9Q 83.18191406249998 2.25  81.22191406249999 2.25L 81.22191406249999 2.25Q 80.83191406249999 2.25  80.42191406249998 2.08Q 80.00191406249999 1.9  79.47191406249999 1.73Q 78.93191406249998 1.56  78.27191406249999 1.39Q 77.61191406249998 1.22  76.68191406249998 1.22L 76.68191406249998 1.22Q 75.71191406249999 1.22  75.12191406249998 0.93Q 74.5319140625 0.63  74.07191406249999 0.24Q 73.61191406249998-0.15  73.12191406249998-0.61Q 72.63191406249999-1.07  71.85191406249999-1.42L 71.85191406249999-1.42Q 68.92191406249998-2.73  66.87191406249998-4.59Q 64.82191406249999-6.45  63.351914062499986-8.74Q 61.891914062499986-11.04  60.91191406249999-13.72Q 59.931914062499985-16.41  59.251914062499985-19.34L 59.251914062499985-19.34Q 58.711914062499986-21.39  58.711914062499986-23.44L 58.711914062499986-23.44Q 58.711914062499986-26.12  59.98191406249998-28.42L 59.98191406249998-28.42Q 59.501914062499985-29.79  59.501914062499985-31.05L 59.501914062499985-31.05Q 59.501914062499985-31.98  60.031914062499986-33.81Q 60.571914062499985-35.64  61.42191406249999-37.5Q 62.281914062499986-39.36  63.281914062499986-40.84Q 64.2819140625-42.33  65.16191406249999-42.68L 65.16191406249999-42.68Q 65.84191406249998-42.92  66.11191406249999-43.09Q 66.38191406249999-43.26  66.38191406249999-44.04L 66.38191406249999-44.04Q 66.38191406249999-44.63  66.84191406249998-45.02Q 67.31191406249998-45.41  67.97191406249999-45.65Q 68.63191406249999-45.9  69.29191406249998-46.09Q 69.94191406249999-46.29  70.38191406249999-46.48L 70.38191406249999-46.48Q 72.19191406249999-47.36  73.83191406249999-47.97Q 75.46191406249999-48.58  77.10191406249999-49Q 78.73191406249998-49.41  80.49191406249999-49.61Q 82.25191406249999-49.8  84.25191406249999-49.8L 84.25191406249999-49.8Q 85.33191406249999-49.8  86.35191406249999-49.51Q 87.38191406249999-49.22  88.33191406249998-48.75Q 89.2819140625-48.29  90.21191406249999-47.73Q 91.14191406249998-47.17  92.01191406249998-46.63L 92.01191406249998-46.63L 91.97191406249999-46.63Q 92.70191406249998-46.53  93.36191406249998-46.22Q 94.02191406249999-45.9  94.75191406249999-45.8L 94.75191406249999-45.8Q 95.43191406249998-44.97  96.5319140625-44.21Q 97.63191406249999-43.46  98.68191406249998-42.63Q 99.73191406249998-41.8  100.49191406249999-40.84Q 101.24191406249999-39.89  101.24191406249999-38.67L 101.24191406249999-38.67Q 101.24191406249999-38.48  101.22191406249999-38.28Q 101.19191406249999-38.09  101.15191406249998-37.84L 101.15191406249998-37.84L 101.3419140625-38.09Q 101.54191406249998-37.94  101.71191406249999-37.6Q 101.88191406249999-37.26  102.02191406249999-36.84Q 102.17191406249998-36.43  102.27191406249999-36.01Q 102.37191406249998-35.6  102.42191406249998-35.35L 102.42191406249998-35.35Q 102.8119140625-34.72  103.46191406249999-34.33Q 104.12191406249998-33.94  104.51191406249998-33.25L 104.51191406249998-33.25Q 104.0319140625-32.76  104.0319140625-31.98L 104.0319140625-31.98Q 104.0319140625-31.15  104.37191406249998-30.35Q 104.71191406249999-29.54  104.71191406249999-28.71L 104.71191406249999-28.71Q 104.71191406249999-27.73  104.61191406249998-26.83Q 104.51191406249998-25.93  104.51191406249998-24.95L 104.51191406249998-24.95Q 104.51191406249998-24.22  103.95191406249998-23.83Q 103.39191406249998-23.44  102.73191406249998-23.14Q 102.07191406249999-22.85  101.54191406249998-22.56Q 101.00191406249999-22.27  101.00191406249999-21.73L 101.00191406249999-21.73Q 101.00191406249999-21.34  100.54191406249998-21.36Q 100.07191406249999-21.39  99.7819140625-21.39L 99.7819140625-21.39Q 97.63191406249999-21.39  95.51191406249998-21.92Q 93.38191406249999-22.46  91.2819140625-22.46L 91.2819140625-22.46Q 88.99191406249999-22.46  86.74191406249999-22.14Q 84.50191406249999-21.83  82.20191406249998-21.83L 82.20191406249998-21.83Q 80.49191406249999-21.83  78.8119140625-21.92Q 77.12191406249998-22.02  75.41191406249999-22.02L 75.41191406249999-22.02Q 74.97191406249999-22.02  73.75191406249999-21.85Q 72.5319140625-21.68  71.19191406249999-21.41Q 69.85191406249999-21.14  68.63191406249999-20.78Q 67.41191406249999-20.41  66.92191406249998-20.07L 66.92191406249998-20.07Q 66.87191406249998-19.82  66.87191406249998-19.38L 66.87191406249998-19.38Q 66.87191406249998-17.09  68.21191406249999-14.65Q 69.55191406249999-12.21  71.75191406249999-10.21Q 73.95191406249998-8.2  76.68191406249998-6.88Q 79.42191406249998-5.57  82.20191406249998-5.57L 82.20191406249998-5.57Q 83.8119140625-5.57  85.40191406249998-5.44Q 86.99191406249999-5.32  88.50191406249999-4.74L 88.50191406249999-4.74Q 89.82191406249999-5.37  90.92191406249998-6.2Q 92.01191406249998-7.03  93.04191406249998-7.96Q 94.07191406249999-8.89  95.04191406249998-9.86Q 96.02191406249999-10.84  97.04191406249998-11.82L 97.04191406249998-11.82Q 97.24191406249999-12.01  98.00191406249999-12.18Q 98.75191406249999-12.35  99.63191406249999-12.48Q 100.51191406249998-12.6  101.32191406249999-12.67Q 102.12191406249998-12.74  102.42191406249998-12.74L 102.42191406249998-12.74Q 103.54191406249998-12.74  104.51191406249998-12.4L 104.51191406249998-12.4Q 104.8119140625-11.28  104.8119140625-10.21ZM 97.48191406249998-30.03L 97.48191406249998-30.03Q 97.48191406249998-30.76  97.24191406249999-31.45Q 97.00191406249999-32.13  96.85191406249999-32.86L 96.85191406249999-32.86Q 96.60191406249999-34.23  96.60191406249999-35.52Q 96.60191406249999-36.82  96.21191406249999-38.13L 96.21191406249999-38.13L 96.17191406249998-38.13Q 96.17191406249998-37.84  95.97191406249999-37.57Q 95.77191406249999-37.3  95.43191406249998-37.3L 95.43191406249998-37.3Q 94.85191406249999-37.3  94.3119140625-37.6Q 93.77191406249999-37.89  93.38191406249999-38.33L 93.38191406249999-38.33Q 91.5319140625-39.16  90.04191406249998-39.89Q 88.55191406249999-40.63  87.0619140625-41.19Q 85.57191406249999-41.75  83.88191406249999-42.07Q 82.20191406249998-42.38  80.00191406249999-42.38L 80.00191406249999-42.38Q 79.8119140625-42.38  79.64191406249998-42.36Q 79.47191406249999-42.33  79.32191406249999-42.19L 79.32191406249999-42.19L 79.5619140625-41.65L 79.17191406249998-41.55Q 77.85191406249999-41.31  77.00191406249999-41.09Q 76.15191406249998-40.87  75.46191406249999-40.48Q 74.7819140625-40.09  74.12191406249998-39.53Q 73.46191406249999-38.96  72.43191406249998-38.09L 72.43191406249998-38.09Q 71.95191406249998-37.65  71.38191406249999-37.43Q 70.82191406249999-37.21  70.26191406249998-37.04Q 69.70191406249998-36.87  69.19191406249999-36.67Q 68.67191406249998-36.47  68.33191406249999-36.04L 68.33191406249999-36.04Q 67.99191406249999-34.81  67.33191406249999-33.67Q 66.67191406249998-32.52  66.67191406249998-31.25L 66.67191406249998-31.25Q 66.67191406249998-30.52  67.2819140625-29.96Q 67.89191406249998-29.39  68.85191406249999-29Q 69.80191406249999-28.61  70.95191406249998-28.32Q 72.09191406249998-28.03  73.22191406249999-27.88Q 74.34191406249998-27.73  75.29191406249998-27.66Q 76.24191406249999-27.59  76.7819140625-27.59L 76.7819140625-27.59Q 78.64191406249998-27.59  80.44191406249999-27.95Q 82.25191406249999-28.32  84.10191406249999-28.32L 84.10191406249999-28.32Q 86.01191406249998-28.32  87.91191406249999-28.15Q 89.82191406249999-27.98  91.72191406249999-27.98L 91.72191406249999-27.98Q 92.21191406249999-27.98  93.19191406249999-28.03Q 94.16191406249999-28.08  95.12191406249998-28.3Q 96.07191406249999-28.52  96.7819140625-28.93Q 97.48191406249998-29.35  97.48191406249998-30.03ZM 165.6464453125-35.64L 165.6464453125-35.64Q 165.6464453125-34.67  165.2564453125-33.98Q 164.8664453125-33.3  164.4064453125-32.69Q 163.93644531249998-32.08  163.4764453125-31.45Q 163.0164453125-30.81  162.8664453125-29.93L 162.8664453125-29.93Q 162.4264453125-30.13  161.9664453125-30.18Q 161.4964453125-30.22  161.0064453125-30.22L 161.0064453125-30.22Q 159.8364453125-30.22  158.68644531249998-30.05Q 157.5464453125-29.88  156.4164453125-29.88L 156.4164453125-29.88Q 155.1064453125-29.88  154.2464453125-30.69Q 153.3964453125-31.49  152.8764453125-32.67Q 152.3664453125-33.84  152.1764453125-35.18Q 151.9764453125-36.52  151.9764453125-37.6L 151.9764453125-37.6Q 151.9764453125-38.96  152.4164453125-40.38L 152.4164453125-40.38Q 152.02644531250002-40.53  151.7364453125-40.53L 151.7364453125-40.53Q 151.0964453125-40.53  150.8264453125-40.14Q 150.5664453125-39.75  150.0764453125-39.75L 150.0764453125-39.75Q 149.6364453125-39.75  149.2964453125-40.06Q 148.9464453125-40.38  148.4664453125-40.38L 148.4664453125-40.38Q 147.7264453125-40.38  146.6264453125-39.92Q 145.5364453125-39.45  144.5064453125-38.72Q 143.4864453125-37.99  142.7264453125-37.13Q 141.9664453125-36.28  141.9664453125-35.5L 141.9664453125-35.5Q 140.9464453125-35.4  140.0364453125-34.94Q 139.1364453125-34.47  138.3064453125-33.94L 138.3064453125-33.94Q 137.6664453125-33.54  137.2364453125-32.71Q 136.7964453125-31.88  136.4264453125-30.93Q 136.0564453125-29.98  135.6964453125-29Q 135.3264453125-28.03  134.8364453125-27.39L 134.8364453125-27.39Q 134.0064453125-26.32  133.3964453125-25.22Q 132.7864453125-24.12  132.7864453125-22.75L 132.7864453125-22.75Q 132.7864453125-21.04  133.3264453125-19.29Q 133.8664453125-17.53  133.8664453125-15.72L 133.8664453125-15.72Q 133.8664453125-14.55  133.68644531249998-13.38Q 133.5164453125-12.21  133.5164453125-11.08L 133.5164453125-11.08Q 133.5164453125-9.72  134.0064453125-8.89Q 134.4964453125-8.06  135.3264453125-7.59Q 136.1564453125-7.13  137.2364453125-6.98Q 138.3064453125-6.84  139.4264453125-6.84L 139.4264453125-6.84Q 140.6464453125-6.84  141.7964453125-6.91Q 142.9464453125-6.98  143.9164453125-6.98L 143.9164453125-6.98Q 144.2664453125-6.59  144.3164453125-6.25Q 144.3564453125-5.91  144.2864453125-5.54Q 144.2164453125-5.18  144.0964453125-4.81Q 143.9664453125-4.44  143.9664453125-3.96L 143.9664453125-3.96Q 143.9664453125-3.76  144.0664453125-3.47L 144.0664453125-3.47Q 144.7964453125-3.47  145.3364453125-3.81Q 145.8764453125-4.15  146.1164453125-4.88L 146.1164453125-4.88Q 146.4564453125-4.79  146.7264453125-4.59Q 146.9964453125-4.39  146.9964453125-4L 146.9964453125-4Q 146.9964453125-3.71  146.8464453125-3.44Q 146.7064453125-3.17  146.5064453125-2.93Q 146.3164453125-2.69  146.1664453125-2.42Q 146.0164453125-2.15  146.0164453125-1.81L 146.0164453125-1.81Q 146.0164453125-1.61  146.0664453125-1.39Q 146.1164453125-1.17  146.2164453125-1.03L 146.2164453125-1.03Q 145.9764453125-0.63  145.5364453125-0.49Q 145.0964453125-0.34  144.6564453125-0.34L 144.6564453125-0.34Q 143.8764453125-0.34  143.3564453125-0.59Q 142.8464453125-0.83  142.43644531249998-1.12Q 142.0164453125-1.42  141.6764453125-1.66Q 141.3364453125-1.9  140.8464453125-1.9L 140.8464453125-1.9Q 140.6464453125-1.9  140.2564453125-1.81Q 139.8664453125-1.71  139.4764453125-1.56Q 139.0864453125-1.42  138.7964453125-1.2Q 138.4964453125-0.98  138.4964453125-0.78L 138.4964453125-0.78Q 138.4964453125-0.39  138.7664453125-0.1Q 139.0364453125 0.2  139.0364453125 0.59L 139.0364453125 0.59Q 139.0364453125 0.93  138.7964453125 1.12Q 138.5464453125 1.32  138.2064453125 1.39Q 137.8664453125 1.46  137.4964453125 1.49Q 137.1364453125 1.51  136.8864453125 1.51L 136.8864453125 1.51Q 134.9864453125 1.51  133.1064453125 1.1Q 131.2264453125 0.68  129.3164453125 0.68L 129.3164453125 0.68Q 128.4464453125 0.68  127.56644531250001 1.07Q 126.6864453125 1.46  125.7064453125 1.46L 125.7064453125 1.46Q 125.1664453125 1.46  124.9064453125 1.25Q 124.6364453125 1.03  124.4364453125 0.73Q 124.2464453125 0.44  123.9964453125 0.22Q 123.7564453125 0  123.2664453125 0L 123.2664453125 0Q 122.3364453125 0  121.4364453125 0.2Q 120.5364453125 0.39  119.6264453125 0.61Q 118.7264453125 0.83  117.8264453125 1Q 116.9164453125 1.17  115.9864453125 1.17L 115.9864453125 1.17Q 115.5064453125 1.17  114.8164453125 1.05Q 114.1364453125 0.93  113.4964453125 0.63Q 112.8664453125 0.34  112.4264453125-0.1Q 111.9864453125-0.54  111.9864453125-1.17L 111.9864453125-1.17Q 111.9864453125-1.56  112.4464453125-2.2Q 112.9164453125-2.83  113.4964453125-3.44Q 114.0864453125-4.05  114.6764453125-4.49Q 115.2564453125-4.93  115.5564453125-4.93L 115.5564453125-4.93Q 116.3364453125-4.93  117.0864453125-4.88Q 117.8464453125-4.83  118.6764453125-4.83L 118.6764453125-4.83Q 119.9964453125-4.83  121.3364453125-5.25Q 122.6764453125-5.66  123.7764453125-6.45Q 124.8764453125-7.23  125.56644531250001-8.4Q 126.2464453125-9.57  126.2464453125-11.04L 126.2464453125-11.04Q 126.2464453125-11.67  126.14644531249999-12.28Q 126.0464453125-12.89  126.0464453125-13.53L 126.0464453125-13.53Q 126.0464453125-14.79  126.3464453125-16.06Q 126.6364453125-17.33  126.6364453125-18.6L 126.6364453125-18.6Q 126.6364453125-20.31  126.2664453125-22.09Q 125.9064453125-23.88  125.9064453125-25.68L 125.9064453125-25.68Q 125.9064453125-27.29  125.9764453125-28.88Q 126.0464453125-30.47  126.0464453125-32.08L 126.0464453125-32.08Q 126.0464453125-32.81  125.9964453125-34.23Q 125.9564453125-35.64  125.6864453125-37.06Q 125.4164453125-38.48  124.8564453125-39.55Q 124.2964453125-40.63  123.31644531250001-40.63L 123.31644531250001-40.63Q 122.2364453125-40.63  121.1664453125-40.38Q 120.0964453125-40.14  118.9664453125-40.14L 118.9664453125-40.14Q 118.1364453125-40.14  117.0164453125-40.26Q 115.8964453125-40.38  114.8664453125-40.75Q 113.8464453125-41.11  113.1064453125-41.8Q 112.3764453125-42.48  112.3764453125-43.6L 112.3764453125-43.6Q 112.3764453125-44.82  112.7164453125-45.58Q 113.0664453125-46.34  113.6264453125-46.73Q 114.1864453125-47.12  114.9364453125-47.27Q 115.6964453125-47.41  116.5764453125-47.41L 116.5764453125-47.41Q 117.3564453125-47.41  118.1864453125-47.36Q 119.0164453125-47.31  119.7964453125-47.31L 119.7964453125-47.31Q 121.3664453125-47.31  122.89644531249999-47.49Q 124.4364453125-47.66  125.9964453125-47.66L 125.9964453125-47.66Q 127.0764453125-47.66  128.1464453125-47.56Q 129.2264453125-47.46  130.2464453125-47.12L 130.2464453125-47.12Q 131.1764453125-46.83  131.6164453125-46.02Q 132.0564453125-45.21  132.4264453125-44.38Q 132.7864453125-43.55  133.27644531250002-42.9Q 133.7664453125-42.24  134.8364453125-42.24L 134.8364453125-42.24Q 135.3264453125-42.24  135.7464453125-42.5Q 136.1564453125-42.77  136.5464453125-43.12Q 136.93644531249998-43.46  137.3264453125-43.75Q 137.7164453125-44.04  138.2564453125-44.14L 138.2564453125-44.14Q 139.3264453125-44.29  140.2364453125-44.82Q 141.1364453125-45.36  142.0164453125-45.9Q 142.8964453125-46.44  143.7964453125-46.88Q 144.7064453125-47.31  145.77644531250002-47.31L 145.77644531250002-47.31Q 146.4064453125-47.31  147.3664453125-47.46Q 148.3164453125-47.61  149.2664453125-47.88Q 150.2164453125-48.14  151.0764453125-48.54Q 151.9264453125-48.93  152.4164453125-49.41L 152.4164453125-49.41Q 153.7364453125-49.32  155.5164453125-48.78Q 157.2964453125-48.24  158.93644531249998-47.34Q 160.5664453125-46.44  161.7964453125-45.21Q 163.0164453125-43.99  163.2064453125-42.48L 163.2064453125-42.48Q 163.3564453125-41.55  163.7464453125-40.72Q 164.1364453125-39.89  164.5464453125-39.09Q 164.9664453125-38.28  165.3064453125-37.43Q 165.6464453125-36.57  165.6464453125-35.64Z" data-textpath="Parser" data-text-anchor="middle" data-font-size="100" data-letterspacing="0" data-side="left" data-offset="0" data-dx="0" data-dy="75" data-href="" data-font="Special Elite" data-font-src="/Content/clientfonts/specialelite.woff" data-font-scale="contain" transform="translate(0,75)" data-xmlspace="preserve" fill="url('#linearGradientSkjbxtknk7i')">
</path>
<rect x="0" y="0" width="0" height="0">
</rect>
</g>
</svg>
