<?xml version="1.0" encoding="utf-8"?>
<svg cursor="auto" text-rendering="geometricprecision" viewBox="600.874 267.898 410.297 341.78" xmlns="http://www.w3.org/2000/svg">
  <defs>
    <linearGradient id="a" y1=".5" y2=".5">
      <stop stop-color="#8a2846" offset="0"/>
      <stop stop-color="#8a2846" offset="1"/>
    </linearGradient>
    <linearGradient id="c" y1=".5" y2=".5">
      <stop stop-color="#fff" offset="0"/>
      <stop stop-color="#fff" offset="1"/>
    </linearGradient>
    <linearGradient id="b" y1=".5" y2=".5">
      <stop stop-color="#ff7aa2" offset="0"/>
      <stop stop-color="#ff7aa2" offset="1"/>
    </linearGradient>
  </defs>
  <g class="svg-clip svg-visible" transform="matrix(.7047 0 0 .7047 738.11 278.46)" cursor="move">
    <rect class="svg-hitbox" width="187" height="186" fill="none" style=""/>
    <svg width="187.03" height="186.77" viewBox="-5.131860901213205,-5,187.0337218024264,186.77">
      <circle cx="88.385" cy="88.385" r="88.385" fill="url(#b)" style=""/>
    </svg>
  </g>
  <g class="svg-clip svg-visible" transform="matrix(.47 0 0 .47 759.06 301.29)" cursor="move">
    <rect class="svg-hitbox" width="187" height="186" fill="none" style=""/>
    <svg width="187.03" height="186.77" viewBox="-5.131860901213205,-5,187.0337218024264,186.77">
      <circle cx="88.385" cy="88.385" r="88.385" fill="url(#c)" style=""/>
    </svg>
  </g>
  <g class="svg-clip svg-visible" transform="matrix(1.1353 1.306 -1.306 1.1353 811.54 220.94)" cursor="move">
    <rect class="svg-hitbox" width="100" height="100" fill="none" style=""/>
    <svg width="100.11" height="100.11" viewBox="-0.05381312130948501,-0.05442600695108801,100.1074508502092,100.1094260069511">
      <path d="m93.018 6.982c-4.868-4.87-16.123-0.568-28.962 8.261-4.344-1.763-9.087-2.743-14.056-2.743-20.678 0-37.5 16.822-37.5 37.5 0 4.969 0.98 9.712 2.743 14.056-8.828 12.838-13.13 24.092-8.261 28.962 1.394 1.395 3.312 2.037 5.64 2.037 5.803 0 14.159-3.999 23.321-10.298 4.345 1.763 9.087 2.743 14.057 2.743 20.678 0 37.5-16.822 37.5-37.5 0-4.969-0.98-9.712-2.743-14.056 8.827-12.838 13.13-24.092 8.261-28.962zm-29.421 38.673c-1.358-0.269-2.671 0.608-2.942 1.961l-2.5 12.5v5e-3c-0.036 0.184-0.046 0.371-0.041 0.557 2e-3 0.057 0.011 0.111 0.016 0.168 0.013 0.131 0.034 0.26 0.068 0.389 0.016 0.06 0.032 0.118 0.052 0.176 0.043 0.127 0.099 0.249 0.163 0.368 0.026 0.048 0.047 0.097 0.075 0.143 0.099 0.159 0.213 0.312 0.351 0.451 0.119 0.119 0.249 0.224 0.386 0.316 0.097 0.065 0.201 0.112 0.304 0.162 0.043 0.021 0.083 0.049 0.128 0.067 0.115 0.047 0.234 0.077 0.353 0.107 0.038 9e-3 0.074 0.026 0.113 0.033 0.16 0.031 0.321 0.048 0.483 0.048s0.324-0.016 0.484-0.048c2e-3 0 4e-3 0 6e-3 -1e-3l12.5-2.5c1.354-0.271 2.232-1.588 1.961-2.942s-1.585-2.229-2.942-1.961l-4.658 0.932c4.835-5.19 9.337-10.518 13.233-15.697 0.847 2.893 1.31 5.948 1.31 9.111 0 17.92-14.58 32.5-32.5 32.5-12.67 0-23.662-7.292-29.02-17.896 3.792-5.283 8.553-11.138 14.286-17.319l-0.824 4.118c-0.271 1.354 0.607 2.671 1.961 2.942 0.166 0.033 0.331 0.049 0.493 0.049 1.167 0 2.211-0.822 2.449-2.01l2.5-12.5v-5e-3c0.036-0.184 0.046-0.371 0.041-0.557-2e-3 -0.057-0.011-0.111-0.016-0.168-0.013-0.131-0.034-0.26-0.068-0.389-0.016-0.06-0.032-0.118-0.052-0.176-0.043-0.127-0.099-0.249-0.163-0.368-0.026-0.048-0.047-0.097-0.075-0.143-0.099-0.159-0.213-0.312-0.351-0.451-0.139-0.139-0.292-0.253-0.452-0.352-0.044-0.027-0.091-0.048-0.137-0.072-0.123-0.066-0.248-0.123-0.378-0.167-0.054-0.018-0.108-0.034-0.164-0.049-0.135-0.035-0.27-0.058-0.408-0.071-0.05-5e-3 -0.099-0.013-0.15-0.014-0.189-6e-3 -0.377 4e-3 -0.563 0.04h-5e-3l-12.5 2.5c-1.354 0.271-2.232 1.588-1.961 2.942s1.585 2.23 2.942 1.961l4.658-0.932c-4.835 5.19-9.337 10.518-13.233 15.697-0.847-2.892-1.31-5.947-1.31-9.11 0-17.92 14.58-32.5 32.5-32.5 12.67 0 23.662 7.292 29.02 17.896-3.792 5.283-8.553 11.138-14.286 17.319l0.824-4.118c0.271-1.354-0.607-2.671-1.961-2.942zm-53.079 43.827c-2.055-2.055 0.37-9.65 7.297-20.263 3.186 5.316 7.65 9.78 12.966 12.966-10.612 6.928-18.206 9.352-20.263 7.297zm71.667-58.701c-3.186-5.315-7.65-9.779-12.965-12.965 10.613-6.927 18.206-9.351 20.262-7.298 2.056 2.055-0.369 9.649-7.297 20.263z" fill="url(#a)" style=""/>
    </svg>
  </g>
  <g class="svg-text svg-visible" transform="matrix(1.2073,0,0,1.2073,804,418)" cursor="move" pointer-events="fill">
    <path d="m-61.865 80c41.865-1 81.865-1 123.73 0" fill="none" style=""/>
    <path transform="translate(0,75)" d="m-4.5452-32.86q0 1.02-0.19 1.98-0.2 0.95-0.44 1.9-0.24 0.95-0.44 1.93t-0.2 1.95q0 0.39 0.08 0.76 0.07 0.37 0.07 0.76 0 0.97-0.32 1.85-0.31 0.88-0.75 1.71-0.39 0.73-0.47 1.51-0.07 0.79-0.09 1.57-0.03 0.78-0.18 1.56-0.14 0.78-0.58 1.46-0.1 0.49-0.27 1.44-0.17 0.96-0.41 1.35-0.05 0.09-0.3 0.14-0.24 0.05-0.54 0.1-0.29 0.05-0.63 0.2-0.34 0.14-0.59 0.44-0.24 0.24-0.39 0.68-0.14 0.44-0.34 0.88-0.19 0.44-0.46 0.76-0.27 0.31-0.71 0.31-0.44 0-0.78-0.17-0.34-0.17-0.68-0.34-0.35-0.17-0.69-0.27-0.34-0.1-0.83 0.05 0.15 0.1 0.1 0.46-0.05 0.37 0.02 0.76 0.08 0.39 0.42 0.73 0.34 0.35 1.22 0.35 0.44 0 0.85-0.05 0.42-0.05 0.86-0.15-0.39 1.07-0.93 1.68-0.54 0.61-1.2 1.08-0.65 0.46-1.36 0.93-0.71 0.46-1.39 1.19-0.83 0.83-1.59 1.03-0.76 0.19-1.78 0.49-1.18 0.34-1.66 0.83-0.49 0.48-1.08 0.92-0.58 0.44-1.59 0.76-1 0.32-3.14 0.32-1.96 0-3.89-0.15-1.92-0.14-3.83-0.39-0.88-0.1-1.44-0.32t-1.05-0.48q-0.49-0.27-0.98-0.57-0.48-0.29-1.22-0.58-0.39-0.15-0.92-0.37-0.54-0.22-1.13-0.46-0.58-0.25-1.07-0.51-0.49-0.27-0.78-0.52-0.34-0.29-0.47-0.66-0.12-0.36-0.22-0.78-0.09-0.41-0.22-0.78-0.12-0.37-0.46-0.61-0.73-0.1-1.42-0.27-0.68-0.17-1.36-0.41-0.2-0.54-0.37-1.05-0.17-0.52-0.37-1.05-0.63-0.69-1.22-1.15-0.58-0.46-1.02-0.95t-0.76-1.15-0.41-1.73q-0.15-1.27-0.59-2.47t-0.9-2.37q-0.47-1.17-0.83-2.39-0.37-1.22-0.37-2.49 0-1.32 0.54-2.69-1.42-2-1.76-4.37-0.34-2.36-0.34-4.76 0-0.78 0.02-1.53 0.03-0.76 0.03-1.49 0-0.83-0.37-1.3-0.37-0.46-0.37-1.14 0-1.08 0.32-2.1 0.32-1.03 0.42-2.1-0.64-0.1-0.83-0.49l0.09-0.2q0.35-0.58 0.57-1.07t0.31-0.93q0.1-0.44 0.2-0.93t0.24-1.12q0.39-2 1-3.91 0.61-1.9 1.2-3.85 0.63-2.25 1.56-3.96t2.88-3.17q0.83-0.69 1.52-1.47 0.68-0.78 0.97-1.85 0.25-0.2 0.54-0.25t0.59-0.05h0.39q0.34 0 0.66-0.07 0.31-0.07 0.61-0.32 0.73-0.68 1.29-0.97 0.56-0.3 1.54-0.3 0.68 0 1.32 0.13 0.63 0.12 1.32 0.26 0.24-0.24 0.7-0.65 0.47-0.42 0.81-0.57v0.15q0 0.2 0.07 0.37 0.08 0.17 0.32 0.17 0.63 0 1.22-0.3 0.59-0.29 1.22-0.39 1.42-0.24 2.83-0.75 1.42-0.52 2.88-0.52 1.57 0 3.35 0.2 1.78 0.19 3.49 0.73 1.71 0.54 3.17 1.49 1.47 0.95 2.35 2.47 0.39 0.68 0.78 1.05 0.39 0.36 0.78 0.63t0.78 0.54 0.83 0.76q0.93 1.07 1.49 2.31 0.56 1.25 1.59 2.23 1.27 1.17 1.88 2.83 0.61 1.66 0.61 3.37 0 0.53-0.15 1.07-0.14 0.54-0.14 1.12 0 0.49 0.21 1.03 0.22 0.54 0.52 1.12 0.29 0.59 0.53 1.22 0.25 0.64 0.35 1.22 0.14 1.32 0.44 2.57 0.29 1.24 0.58 2.56 0.39 1.66 0.59 3.37 0.19 1.71 0.14 3.42zm-7.95-0.34q0-2.74-0.47-5.42-0.46-2.69-0.9-5.37-0.2-0.98-0.61-1.86-0.42-0.88-0.71-1.81-0.59-1.75-1.12-3.51-0.54-1.76-1.08-3.52-0.34-1.07-1.36-1.88-1.03-0.8-2.4-1.36-1.36-0.57-2.95-0.93-1.59-0.37-3.05-0.59-1.47-0.22-2.71-0.29-1.25-0.07-1.88-0.07l0.63-0.05-0.54 0.05q-1.07 0-2.12-0.1t-2.12-0.1q-0.88 0-1.74 0.12-0.85 0.12-1.53 0.66-1.62 1.27-3.03 2.37-1.42 1.1-2.35 3-0.29 0.64-0.63 0.91-0.34 0.26-0.66 0.53t-0.56 0.61q-0.25 0.35-0.34 1.13-0.25 1.41-0.56 2.8-0.32 1.4-0.32 2.81 0 1.52-0.27 3-0.27 1.49-0.86 2.91-0.14 0.39-0.26 0.73-0.13 0.34-0.13 0.73 0 0.74 0.35 1.25 0.34 0.51 0.34 0.9 0 0.2-0.12 0.22-0.13 0.03-0.25 0.1t-0.24 0.32q-0.12 0.24-0.12 0.88 0 1.41 0.02 2.88 0.02 1.46 0.27 2.88 0.14 0.83 0.51 1.59 0.37 0.75 0.37 1.58 0 0.54-0.25 1.08-0.24 0.53-0.24 1.12 0 0.68 0.39 1.1 0.39 0.41 0.78 0.95 0.29 0.39 0.51 1t0.44 1.15 0.42 0.93q0.19 0.39 0.44 0.39 0.19 0 0.34-0.08 0.15-0.07 0.34-0.07 0.98 0 1.49 0.86 0.51 0.85 0.51 1.68 0 0.68 0.39 1.15 0.39 0.46 0.93 0.85t1.1 0.76q0.56 0.36 0.95 0.8 0.64 0.74 1 0.98 0.37 0.24 0.66 0.32 0.3 0.07 0.56 0.12 0.27 0.05 0.71 0.34 0.54 0.39 1.1 0.86 0.56 0.46 1.1 0.85 1.51 1.08 3.39 1.29 1.88 0.22 3.69 0.22 0.73 0 1.37-0.34 0.63-0.34 1.27-0.75 0.63-0.42 1.29-0.76 0.66-0.34 1.44-0.34 0.64 0 1.32 0.29 1.12-1.71 2.15-2.73 1.02-1.03 1.85-2.01 0.83-0.97 1.42-2.24 0.58-1.27 0.83-3.47 0.1-0.93 0.51-1.73 0.42-0.81 0.51-1.69 0.25-1.95 0.27-3.9 0.03-1.96 0.32-3.91 0.1-0.78 0.15-1.56t0.05-1.61zm72.21 31.34q0 0.69-0.24 1.01-0.25 0.31-0.56 0.56-0.32 0.24-0.57 0.49-0.24 0.24-0.24 0.73 0 0.29 0.05 0.44-1.71 0.44-3.78 0.58-2.08 0.15-3.84 0.15-0.24 0-0.61-0.12-0.36-0.12-0.71-0.3-0.34-0.17-0.56-0.43-0.22-0.27-0.22-0.57-0.58 0.2-1.29 0.32-0.71 0.12-1.37 0.32-0.66 0.19-1.24 0.54-0.59 0.34-0.98 0.92-0.63-0.19-1.68-0.34-1.05-0.15-2.23-0.34-1.17-0.2-2.34-0.46-1.17-0.27-2.12-0.69-0.96-0.41-1.57-1-0.61-0.58-0.61-1.46 0-0.25 0.05-0.86t0.2-1.24q0.14-0.64 0.36-1.13 0.22-0.48 0.52-0.48 0.48 0 0.95 0.19 0.46 0.2 1 0.2l0.49-0.05 0.05-0.39q0-0.39-0.22-0.61-0.22-0.22-0.56-0.3-0.35-0.07-0.69-0.07-0.34 0-0.63 0 0.63-0.63 0.83-1.51 0.19-0.88 0.19-1.71 0-0.88-0.22-2.03-0.22-1.15-0.71-2.22-0.48-1.07-1.19-1.91-0.71-0.83-1.69-1.07-0.29-0.63-0.68-1.34-0.39-0.71-0.9-1.3-0.52-0.58-1.18-0.97-0.65-0.39-1.44-0.39-0.87 0-2.24 0.92-1.37 0.93-2.66 2.13-1.3 1.19-2.25 2.32-0.95 1.12-0.95 1.51 0 0.54 0.15 1.03 0.14 0.49 0.14 1.02 0 0.83-0.34 1.52-0.34 0.68-0.88 1.22 0.15 0.88 0.73 1.32 0.59 0.43 1.4 0.65 0.8 0.22 1.63 0.3 0.83 0.07 1.51 0.22 0.3 0.29 0.86 0.73 0.56 0.44 1.07 0.95 0.52 0.51 0.91 1.05 0.39 0.54 0.39 0.98 0 0.49-0.37 0.58-0.37 0.1-0.8 0.15-0.44 0.05-0.81 0.2-0.37 0.14-0.37 0.63 0 0.34 0.1 0.59-2.34 0.09-4.56 0.46-2.23 0.37-4.47 0.9-0.93 0.25-1.86 0.3t-1.88 0.05q-0.95 0-1.93 0.04-0.97 0.05-1.9 0.25-0.68 0.14-1.37 0.14-1.12 0-2.1-0.43-0.97-0.44-1.71-1.23-0.73-0.78-1.14-1.75-0.42-0.98-0.42-2.1 0-1.08 0.61-2 0.61-0.93 1.88-0.93 0.39 0 0.64 0.36 0.24 0.37 0.63 0.37 0.2 0 0.34-0.22 0.15-0.22 0.32-0.51 0.17-0.3 0.46-0.54 0.3-0.24 0.74-0.34 1.36-0.2 2.27-0.93 0.9-0.73 1.39-1.78t0.68-2.3q0.2-1.24 0.2-2.46 0-0.98-0.22-1.88-0.22-0.91-0.22-1.83 0-1.27 0.46-2.62 0.47-1.34 0.47-3 0-2.29-0.27-4.51-0.27-2.23-0.27-4.52 0-1.71 0.19-3.47 0.2-1.76 0.2-3.47 0-0.63-0.17-1.19t-0.37-1.08q-0.19-0.51-0.36-0.97-0.17-0.47-0.17-0.95 0-0.98 0.34-1.96 0.34-0.97 0.34-1.95 0-1.12-0.37-2.15-0.36-1.02-0.36-2.15 0-0.83 0.17-1.68 0.17-0.86 0.17-1.74 0-1.75-0.76-2.63t-1.88-1.3q-1.12-0.41-2.46-0.51-1.35-0.1-2.47-0.32-1.12-0.22-1.88-0.75-0.76-0.54-0.76-1.76 0-1.42 0.64-2.32 0.63-0.9 1.61-1.39 0.98-0.49 2.15-0.66 1.17-0.17 2.29-0.17 3.18 0.68 4.98 1.17 1.81 0.49 2.71 0.83 0.91 0.34 1.13 0.54 0.22 0.19 0.31 0.34 0.3 0.88 0.52 2.64 0.22 1.75 0.36 3.68 0.15 1.93 0.22 3.71 0.08 1.79 0.08 2.66 0 1.32-0.4 2.52-0.39 1.2-0.39 2.46 0 1.37 0.37 2.64t0.46 2.64q0.05 0.88 0.08 1.73 0.02 0.86 0.02 1.74 0 1.26-0.02 2.58-0.03 1.32-0.03 2.64 0 1.86 0.1 3.66 0.1 1.81 0.39 3.62 0.25 0.09 0.44 0.09 0.2 0 0.44 0 0.98 0 1.61-0.51 0.64-0.51 1.17-1.2 0.54-0.68 1.13-1.39 0.58-0.71 1.46-1.1 1.17-0.48 1.98-1.44 0.8-0.95 1.54-1.97 0.73-1.03 1.53-1.93 0.81-0.91 1.98-1.39 1.22-0.49 1.22-1.76 0-0.73-0.19-1.44-0.2-0.71-0.47-1.39-0.26-0.69-0.46-1.4-0.2-0.7-0.2-1.44l0.05-0.53 0.39 0.05h0.15q0.2 0 0.39-0.03 0.2-0.02 0.2-0.22-0.25-0.39-0.25-0.88 0-0.68 0.32-0.88 0.32-0.19 0.9-0.19 1.08 0 2.08 0.39t2.07 0.39q0.78 0 1.49-0.22 0.71-0.22 1.44-0.49 0.74-0.27 1.44-0.49 0.71-0.22 1.49-0.22 1.32 0 2.59 0.34 1.27 0.35 2.59 0.35 1.37 0 2.68-0.39 1.32-0.39 2.74-0.39 0.24 0 0.68 0.14 0.44 0.15 0.86 0.39 0.41 0.25 0.73 0.54 0.32 0.29 0.32 0.59-0.1 0.34-0.39 0.46-0.3 0.12-0.3 0.32 0 0.24 0.25 0.56 0.24 0.32 0.56 0.68 0.32 0.37 0.56 0.78 0.24 0.42 0.24 0.86 0 0.63-1.17 1.22-1.17 0.58-2.71 1.05-1.54 0.46-3 0.73-1.47 0.27-2.05 0.27-1.03 0-1.54-0.37-0.51-0.36-1-0.36-0.78 0-2 0.61-1.22 0.61-2.61 1.58-1.4 0.98-2.81 2.23-1.42 1.24-2.57 2.46-1.14 1.22-1.9 2.35-0.76 1.12-0.76 1.85-0.05 0.78-0.24 1.51-0.2 0.74-0.2 1.52 0 0.68 0.44 1.12t1.03 0.81q0.58 0.36 1.19 0.8 0.62 0.44 0.91 1.08 0.44 0.97 1.32 2.22 0.88 1.24 1.93 2.64 1.05 1.39 2.12 2.8 1.07 1.42 1.98 2.76 0.9 1.34 1.46 2.54t0.56 2.08v0.34q2.44-0.54 4.79-0.54 1.61 0 3.2 0.17 1.58 0.17 3.15 0.37v0.44 0.24q0 0.98 0.34 1.59 0.34 0.61 0.78 1.07 0.44 0.47 0.78 0.88 0.34 0.42 0.34 0.9z" fill="url(#a)" data-dx="0" data-dy="75" data-font="Special Elite" data-font-scale="contain" data-font-size="100" data-font-src="/Content/clientfonts/specialelite.woff" data-href="" data-letterspacing="0" data-offset="0" data-side="left" data-text-anchor="middle" data-textpath="Ok" data-xmlspace="preserve"/>
    <rect width="0" height="0"/>
  </g>
  <g class="svg-text svg-visible" transform="matrix(1.2073,0,0,1.2073,805,512)" cursor="move" pointer-events="fill">
    <path d="m-167.02 80c147.02-1 187.02-1 334.03 0" fill="none" style=""/>
    <path transform="translate(0,75)" d="m-162.28-62.65q-0.2 0.25-0.42 0.44-0.22 0.2-0.51 0.2-0.34 0-0.56-0.29-0.22-0.3-0.22-0.64 0-0.05 0.05-0.15 0.05-0.09 0.05-0.19l0.29-0.1q0.39 0 0.73 0.25 0.34 0.24 0.59 0.48zm13.91 34.77v0.05 0.14q-0.05-0.14-0.05-0.26 0-0.13 0-0.22l0.05 0.29zm34.04-22.46q0 0.73-0.05 1.66t-0.17 1.9q-0.13 0.98-0.3 1.88-0.17 0.91-0.41 1.59-0.69 1.66-1.78 3.03-1.1 1.36-1.74 3.07-0.14 0.44-0.83 0.98-0.68 0.54-1.51 1.07-0.83 0.54-1.64 1-0.8 0.47-1.24 0.76-2.79 1.71-5.57 2.59-2.78 0.88-6 0.88h-0.3q-0.78-0.44-1.29-0.59-0.51-0.14-1.44-0.14-0.93 0-1.81 0.04-0.88 0.05-1.76 0.15-0.34 0.05-1.34 0.37-1 0.31-2.07 0.73-1.08 0.41-1.93 0.83-0.86 0.41-0.86 0.66v0.19q0.1 0.35 0.25 0.35 0.24 0 0.46-0.27 0.22-0.27 0.51-0.27 0.25 0 0.39 0.24 0.15 0.25 0.22 0.56 0.08 0.32 0.1 0.64 0.03 0.32 0.03 0.46 0 1.42-0.3 2.81-0.29 1.39-0.29 2.81 0 1.41-0.02 2.81-0.03 1.39-0.03 2.8 0 2.59 0.27 3.91t1.05 1.98 2.15 0.97q1.36 0.32 3.56 0.91-0.14 0.44-0.14 0.83 0 0.58 0.36 0.85 0.37 0.27 0.78 0.54 0.42 0.27 0.78 0.61 0.37 0.34 0.37 1.07 0 0.64-0.49 1.13-0.58 0.58-0.75 0.97-0.18 0.39-0.32 0.61-0.15 0.22-0.54 0.35-0.39 0.12-1.42 0.17-2.34 0.14-4.63 0.14-0.88 0-1.76-0.02-0.88-0.03-1.81-0.03-2.34 0-4.59 0.15-1.37 0.1-2.66 0.44t-2.71 0.34q-1.61 0-2.2-0.93-0.58-0.92-0.58-2.39 0-1.41 0.63-2.37 0.64-0.95 1.59-1.56t2.05-1 2.05-0.76q0.95-0.36 1.59-0.75 0.63-0.39 0.63-1.03 0-0.59-0.22-1.12-0.22-0.54-0.22-1.13 0-0.34 0.34-1.31 0.35-0.98 0.35-2.3 0-0.54 0-1.05t-0.05-1.05q-0.3-0.14-0.44-0.58-0.15-0.44-0.22-0.96-0.07-0.51-0.07-1.02t0-0.81q0-1.85 0.24-3.68t0.24-3.69q0-1.17-0.14-2.3-0.15-1.12-0.15-2.29 0-0.34 0.2-0.49-0.44-0.34-0.44-0.98 0-0.68 0.22-1.26 0.22-0.59 0.22-1.23 0-0.97-0.2-1.95-0.19-0.97-0.41-1.93-0.22-0.95-0.4-1.9-0.17-0.95-0.17-1.93 0-0.59 0.17-1.12 0.18-0.54 0.35-1.1t0.34-1.12q0.17-0.57 0.17-1.2 0-1.66-0.32-3.25t-0.32-3.25q0-0.97 0.47-1.44 0.46-0.46 1-0.75 0.54-0.3 1-0.56 0.46-0.27 0.46-0.81 0-0.34-0.31-0.59-0.32-0.24-0.61-0.24-0.69 0-1.18 0.44-0.48 0.44-1.12 0.44-0.39 0-0.71-0.51-0.31-0.52-0.68-1.1-0.37-0.59-0.83-1.1t-1.1-0.51q-0.54 0-1.07 0.14-0.54 0.15-1.08 0.15-0.73 0-0.92-0.34-0.2-0.34-0.2-0.88 0-0.25 0.02-0.49 0.03-0.24 0.03-0.49 0-0.39-0.15-0.83-0.14-0.44-0.68-0.44-0.29 0-0.59 0.1 0.69-0.88 1.81-1.34 1.12-0.47 2.37-0.71 1.24-0.24 2.54-0.37 1.29-0.12 2.32-0.36 0.39-0.1 0.7-0.15 0.32-0.05 0.71-0.05 0.88 0 1.74 0.17 0.85 0.17 1.68 0.17 0.93 0 1.49-0.41 0.56-0.42 1.34-0.42 0.39 0.2 1.03 0.47 0.63 0.27 1.02 0.27 1.66 0 3.27-0.2 1.62-0.19 3.23-0.19 1.75 0 3.39 0.46 1.64 0.46 3.27 1.05 1.64 0.58 3.25 1.17 1.61 0.59 3.32 0.88 0.59 0.1 1.15 0.44 0.56 0.34 1.1 0.8 0.53 0.47 1.05 0.96 0.51 0.49 0.95 0.83 0.68 0.53 1.1 1.22 0.41 0.68 0.83 1.39 0.41 0.71 0.87 1.37 0.47 0.66 1.2 1.14 0.68 0.44 1.08 1.25 0.39 0.8 0.56 1.73t0.22 1.86 0.05 1.66zm-8.06 2.98q0-3.13-0.95-5.69-0.96-2.57-2.74-4.4t-4.32-2.85q-2.54-1.03-5.66-1.03-0.49 0-1.47 0-0.97 0-2.15 0.05-1.17 0.05-2.44 0.15-1.27 0.09-2.34 0.27-1.08 0.17-1.88 0.44-0.81 0.26-1.05 0.65-0.34 0.54-0.95 1.3t-0.61 1.34q0 0.54 0.29 1.1t0.66 1.2q0.36 0.63 0.68 1.29t0.32 1.34q-0.39 0.05-0.73 0.22t-0.34 0.61q0 0.74 0.46 1.61 0.46 0.88 0.46 1.81 0 0.68-0.29 1.05-0.29 0.37-0.63 0.61-0.35 0.25-0.64 0.49t-0.29 0.63q0 0.44 0.63 1.47 0.64 1.02 1.42 2.17t1.41 2.1q0.64 0.95 0.64 1.15 1.17 0.15 2.29 0.15 0.74 0 2.42-0.08 1.69-0.07 3.54-0.19 1.86-0.13 3.47-0.27 1.61-0.15 2.2-0.29 0.63-0.15 0.87-0.44 0.25-0.3 0.49-0.59 0.25-0.29 0.61-0.51 0.37-0.22 1.2-0.22 1.51 0 2.56-0.54 1.05-0.54 1.69-1.44 0.63-0.9 0.9-2.1t0.27-2.56zm66.742 38.82q0 0.83-0.29 1.56t-0.54 1.51q-0.19 0.68-0.26 1.12-0.08 0.44-0.22 0.76-0.15 0.32-0.47 0.59-0.31 0.27-1 0.61-1.46 0.78-3.1 1.58-1.63 0.81-3.29 0.81-1.42 0-2.67-0.66-1.24-0.66-2.29-1.46-1.05-0.81-1.91-1.49-0.85-0.69-1.44-0.69-0.63 0-1.09 0.34-0.47 0.35-0.93 0.74-0.47 0.39-1.03 0.73-0.56 0.34-1.39 0.34-0.68 0-1.42 0.25-0.73 0.24-1.46 0.56-0.73 0.31-1.49 0.63t-1.39 0.51q-2.2 0.59-4.42 0.69t-4.47 0.1q-0.58 0-1.8-0.03-1.22-0.02-2.47-0.24t-2.2-0.71q-0.95-0.49-0.95-1.37 0-0.19 0.05-0.34-0.34 0.39-0.78 0.64-0.44 0.24-0.98 0.24-0.78 0-1.9-1.07-1.13-1.08-2.15-2.5-1.03-1.41-1.76-2.8t-0.73-2.08q0-0.54 0.32-0.97 0.31-0.44 0.31-0.98 0-0.68-0.17-1.3-0.17-0.61-0.17-1.29 0-0.88 0.34-1.88 0.35-1 0.83-2 0.49-1 1.03-1.95 0.54-0.96 0.98-1.79 0.48-0.97 1.36-1.56 0.88-0.58 1.86-1.02 0.97-0.44 1.95-0.88t1.71-1.17q0.73 0.83 1.9 0.83 1.23 0 2.4-0.37 1.17-0.37 2.39-0.37 0.98 0 1.88 0.2 0.9 0.19 1.88 0.19 1.07 0 1.59-0.27 0.51-0.26 1.29-0.95 0.78-0.68 1.98-1.05 1.19-0.36 2.49-0.58 1.29-0.22 2.59-0.47 1.29-0.24 2.32-0.7 1.02-0.47 1.66-1.27 0.63-0.81 0.63-2.23 0-1.56-0.9-3.29-0.91-1.74-2.32-3.18-1.42-1.44-3.13-2.36-1.71-0.93-3.27-0.93-0.19 0-0.39 0.05-0.19 0.05-0.34 0.05-1.17 0.19-2.64 0.26-1.46 0.08-2.73 0.44-1.27 0.37-2.15 1.22-0.88 0.86-0.88 2.52 0 0.98 0.17 1.93t0.17 1.93q0 1.46-0.71 2.44-0.7 0.97-1.8 1.56t-2.42 0.81-2.54 0.22q-1.46 0-2.54-0.39-1.07-0.4-1.76-1.81-0.53-1.03-1.14-2.22-0.61-1.2-0.61-2.42 0-1.32 0.46-2.47 0.46-1.14 1.05-2.24t1.15-2.2 0.8-2.37q0.35-0.19 0.96-0.39 0.61-0.19 1.31-0.39 0.71-0.19 1.37-0.36 0.66-0.18 1.1-0.32 1.17-0.34 2.27-0.81 1.1-0.46 2.25-0.85 1.14-0.39 2.29-0.69 1.15-0.29 2.37-0.34l1.51-0.05q2.1 0 4.3 0.37t4.3 1.15 3.98 1.93q1.88 1.14 3.34 2.71 1.08 1.17 1.78 2.75 0.71 1.59 1.13 3.35 0.41 1.76 0.58 3.54t0.17 3.3q0 2.05-0.12 4.02-0.12 1.98-0.12 4.03 0 1.96 0.22 3.88 0.22 1.93 0.51 3.86 0.29 1.93 0.51 3.86 0.22 1.93 0.22 3.83 0.1 1.17 0.32 1.44t0.47 0.27q1.07 0 1.73-0.66t1.19-1.46q0.54-0.81 1.18-1.49 0.63-0.69 1.61-0.69 0.44 0 0.9 0.05 0.47 0.05 0.86 0.22t0.63 0.49 0.24 0.86zm-16.06-12.16q0-0.3-0.02-1.03-0.03-0.73-0.13-1.49-0.09-0.75-0.31-1.34t-0.66-0.59q-0.1 0-0.25 0.08-0.14 0.07-0.24 0.07-1.86 1.03-3.17 1.68-1.32 0.66-2.62 1.08-1.29 0.41-2.76 0.56-1.46 0.15-3.66 0.15-0.29 0-1.61 0.24-1.32 0.25-2.88 0.56-1.56 0.32-2.93 0.64-1.37 0.31-1.71 0.41-0.63 0.25-0.9 0.49t-0.42 0.54q-0.14 0.29-0.29 0.61t-0.54 0.66q-0.49 0.39-1.05 0.63-0.56 0.25-1.05 0.73-0.73 0.74-1.36 1.93-0.64 1.2-0.64 2.27 0 1.32 0.68 2.35 0.69 1.02 1.81 1.76 1.12 0.73 2.54 1.26 1.42 0.54 2.86 0.83 1.44 0.3 2.78 0.44 1.34 0.15 2.32 0.15 1.17 0 2.78-0.17t3.23-0.54q1.61-0.36 3.02-1 1.42-0.63 2.25-1.61 0.34-0.39 0.49-0.71 0.14-0.32 0.31-0.63 0.18-0.32 0.39-0.66 0.22-0.34 0.71-0.73 1.13-0.93 1.74-2.05 0.61-1.13 0.9-2.35t0.34-2.54q0.05-1.32 0.05-2.68zm73.093-14.94q0 0.97-0.39 1.66-0.39 0.68-0.85 1.29-0.47 0.61-0.93 1.24-0.46 0.64-0.61 1.52-0.44-0.2-0.9-0.25-0.47-0.04-0.96-0.04-1.17 0-2.32 0.17-1.14 0.17-2.27 0.17-1.31 0-2.17-0.81-0.85-0.8-1.37-1.98-0.51-1.17-0.7-2.51-0.2-1.34-0.2-2.42 0-1.36 0.44-2.78-0.39-0.15-0.68-0.15-0.64 0-0.91 0.39-0.26 0.39-0.75 0.39-0.44 0-0.78-0.31-0.35-0.32-0.83-0.32-0.74 0-1.84 0.46-1.09 0.47-2.12 1.2-1.02 0.73-1.78 1.59-0.76 0.85-0.76 1.63-1.02 0.1-1.93 0.56-0.9 0.47-1.73 1-0.64 0.4-1.07 1.23-0.44 0.83-0.81 1.78t-0.73 1.93q-0.37 0.97-0.86 1.61-0.83 1.07-1.44 2.17t-0.61 2.47q0 1.71 0.54 3.46 0.54 1.76 0.54 3.57 0 1.17-0.18 2.34-0.17 1.17-0.17 2.3 0 1.36 0.49 2.19t1.32 1.3q0.83 0.46 1.91 0.61 1.07 0.14 2.19 0.14 1.22 0 2.37-0.07 1.15-0.07 2.12-0.07 0.35 0.39 0.4 0.73 0.04 0.34-0.03 0.71-0.07 0.36-0.19 0.73-0.13 0.37-0.13 0.85 0 0.2 0.1 0.49 0.73 0 1.27-0.34 0.54-0.34 0.78-1.07 0.34 0.09 0.61 0.29 0.27 0.2 0.27 0.59 0 0.29-0.15 0.56-0.14 0.27-0.34 0.51-0.19 0.24-0.34 0.51-0.15 0.27-0.15 0.61 0 0.2 0.05 0.42 0.05 0.22 0.15 0.36-0.24 0.4-0.68 0.54-0.44 0.15-0.88 0.15-0.78 0-1.3-0.25-0.51-0.24-0.92-0.53-0.42-0.3-0.76-0.54-0.34-0.24-0.83-0.24-0.2 0-0.59 0.09-0.39 0.1-0.78 0.25-0.39 0.14-0.68 0.36-0.3 0.22-0.3 0.42 0 0.39 0.27 0.68 0.27 0.3 0.27 0.69 0 0.34-0.24 0.53-0.25 0.2-0.59 0.27t-0.71 0.1q-0.36 0.02-0.61 0.02-1.9 0-3.78-0.41-1.88-0.42-3.79-0.42-0.87 0-1.75 0.39t-1.86 0.39q-0.54 0-0.8-0.21-0.27-0.22-0.47-0.52-0.19-0.29-0.44-0.51-0.24-0.22-0.73-0.22-0.93 0-1.83 0.2-0.9 0.19-1.81 0.41-0.9 0.22-1.8 0.39-0.91 0.17-1.84 0.17-0.48 0-1.17-0.12-0.68-0.12-1.32-0.42-0.63-0.29-1.07-0.73t-0.44-1.07q0-0.39 0.46-1.03 0.47-0.63 1.05-1.24 0.59-0.61 1.18-1.05 0.58-0.44 0.88-0.44 0.78 0 1.53 0.05 0.76 0.05 1.59 0.05 1.32 0 2.66-0.42 1.34-0.41 2.44-1.2 1.1-0.78 1.79-1.95 0.68-1.17 0.68-2.64 0-0.63-0.1-1.24t-0.1-1.25q0-1.26 0.3-2.53 0.29-1.27 0.29-2.54 0-1.71-0.37-3.49-0.36-1.79-0.36-3.59 0-1.61 0.07-3.2 0.07-1.59 0.07-3.2 0-0.73-0.05-2.15-0.04-1.41-0.31-2.83t-0.83-2.49q-0.56-1.08-1.54-1.08-1.08 0-2.15 0.25-1.07 0.24-2.2 0.24-0.83 0-1.95-0.12t-2.15-0.49q-1.02-0.36-1.76-1.05-0.73-0.68-0.73-1.8 0-1.22 0.34-1.98 0.35-0.76 0.91-1.15 0.56-0.39 1.31-0.54 0.76-0.14 1.64-0.14 0.78 0 1.61 0.05t1.61 0.05q1.57 0 3.1-0.18 1.54-0.17 3.1-0.17 1.08 0 2.15 0.1 1.08 0.1 2.1 0.44 0.93 0.29 1.37 1.1 0.44 0.81 0.81 1.64 0.36 0.83 0.85 1.48 0.49 0.66 1.56 0.66 0.49 0 0.91-0.26 0.41-0.27 0.8-0.62 0.39-0.34 0.78-0.63t0.93-0.39q1.07-0.15 1.98-0.68 0.9-0.54 1.78-1.08 0.88-0.54 1.78-0.98 0.91-0.43 1.98-0.43 0.63 0 1.59-0.15 0.95-0.15 1.9-0.42 0.95-0.26 1.81-0.66 0.85-0.39 1.34-0.87 1.32 0.09 3.1 0.63 1.78 0.54 3.42 1.44 1.63 0.9 2.86 2.13 1.22 1.22 1.41 2.73 0.15 0.93 0.54 1.76 0.39 0.83 0.8 1.63 0.42 0.81 0.76 1.66 0.34 0.86 0.34 1.79zm49.42 20.7q0 0.63-0.22 1.24t-0.52 1.22q-0.29 0.61-0.56 1.2-0.27 0.59-0.36 1.22-0.25 1.32-1 2.37-0.76 1.05-1.74 1.98-0.97 0.92-2.05 1.78-1.07 0.85-1.9 1.73-0.74 0.74-1.57 0.74-0.48 0-0.92-0.1-0.44-0.1-0.93-0.1-0.68 0-1.1 0.24-0.41 0.25-0.78 0.52-0.37 0.27-0.88 0.51-0.51 0.24-1.39 0.24-0.64 0-1.22 0.35-0.59 0.34-1.17 0.34-0.83 0-1.93-0.49-1.1-0.49-2.42-0.49-0.83 0-1.66 0.07-0.83 0.08-1.66 0.08-0.73 0-1.44-0.22-0.71-0.22-1.37-0.49t-1.34-0.49q-0.68-0.22-1.42-0.22-1.46 0-2.49 0.73-1.02 0.74-1.83 1.64-0.8 0.9-1.61 1.63-0.8 0.74-1.83 0.74-0.93 0-1.24-0.32-0.32-0.32-0.4-0.76-0.07-0.44-0.12-0.95t-0.44-0.9q-0.73-0.78-0.97-1.44-0.25-0.66-0.25-1.74 0-2.34 0.42-4.56 0.41-2.22 0.41-4.57 0-0.83-0.19-1.61-0.2-0.78-0.47-1.41-0.27-0.64-0.46-1.08-0.2-0.44-0.2-0.63 0-0.44 0.25-0.93 0.24-0.49 0.56-0.9 0.32-0.42 0.68-0.69 0.37-0.27 0.61-0.27 0.49 0 0.86 0.25 0.36 0.24 0.73 0.51 0.37 0.27 0.73 0.51 0.37 0.25 0.91 0.25 0.09 0 0.14-0.03 0.05-0.02 0.15-0.02 0.68 1.12 1.07 2.42 0.39 1.29 0.81 2.53 0.41 1.25 1.02 2.4 0.61 1.14 1.74 2.02 0.29 0.25 0.68 0.54t0.81 0.59q0.41 0.29 0.83 0.48 0.41 0.2 0.75 0.2 0.54 0 1.05-0.1 0.52-0.1 1.05-0.1 0.74 0 0.74 0.49 0 0.1-0.1 0.39h0.58 0.35q1.85 0 3.71-0.44 1.85-0.44 3.76-0.44 0.88 0 1.78 0.18 0.9 0.17 1.63 0.7 0.93-0.44 1.57-1.12 0.63-0.68 1.27-1.34 0.63-0.66 1.41-1.17 0.78-0.52 2-0.57 0.25-0.29 0.27-0.68 0.03-0.39 0.03-0.76 0-0.36 0.07-0.7 0.07-0.35 0.37-0.64 0.49-0.44 0.75-0.9 0.27-0.47 0.27-1.15 0-1.32-0.73-2.47-0.73-1.14-1.88-2.1-1.15-0.95-2.64-1.7-1.49-0.76-3.02-1.3-1.54-0.54-2.96-0.8-1.41-0.27-2.49-0.27-1.22 0-2.42 0.22-1.19 0.22-2.31 0.75 0-1.07-0.49-1.41-0.49-0.34-1.17-0.49-0.69-0.15-1.4-0.42-0.7-0.26-1.09-1.19-0.83 1.07-2.08 1.56t-2.51 0.49q-1.27 0-2.35-0.49-1.07-0.49-1.93-1.32-0.85-0.83-1.36-1.9-0.52-1.08-0.57-2.3-0.04-0.83-0.34-1.46-0.29-0.64-0.63-1.22-0.34-0.59-0.61-1.22-0.27-0.64-0.27-1.52 0-2.19 0.22-3.44 0.22-1.24 0.56-1.9 0.34-0.66 0.76-0.93 0.41-0.27 0.85-0.54 0.44-0.27 0.83-0.75 0.39-0.49 0.64-1.57 0.14-0.73 0.44-0.97 0.29-0.25 1.02-0.35 0.64-0.09 0.83-0.29 0.2-0.19 0.27-0.44 0.07-0.24 0.17-0.51t0.49-0.51q1.02-0.69 2.03-0.86 1-0.17 2.07-0.17 0.64 0 1.22 0.03 0.59 0.02 1.27 0.02 2.05 0 4-0.2 1.96-0.19 4.01-0.19 1.56 0 2.85 0.32 1.3 0.31 2.28 0.7 0.97 0.4 1.68 0.71 0.71 0.32 1.15 0.32 0.83 0 1.58-0.32 0.76-0.31 1.59-0.36 0.39 0.34 0.9 0.61 0.52 0.27 1.05 0.27 0.4 0 0.59-0.25 0.2-0.24 0.24-0.63 0.69 0.19 1.32 0.68 0.64 0.49 1.15 1.15 0.51 0.66 0.81 1.41 0.29 0.76 0.29 1.44 0 1.81-0.27 3.59-0.27 1.79-0.27 3.59 0 1.86 0.49 3.47-0.68 0.54-1.49 0.95-0.8 0.42-1.34 1.15l-0.05-0.05q-0.34-0.29-0.86-0.76-0.51-0.46-1.07-0.9-0.56-0.44-1.1-0.76-0.54-0.31-0.97-0.31h-0.1q-0.25-0.15-0.42-0.35-0.17-0.19-0.17-0.49 0-0.48 0.29-0.87 0.3-0.39 0.3-0.88 0-0.15-0.44-0.69-0.44-0.53-1-1.1-0.56-0.56-1.1-1.02-0.54-0.46-0.78-0.51-0.49-0.1-1.03-0.34-0.54-0.25-1.07-0.49-0.54-0.25-1-0.44-0.47-0.2-0.76-0.2-0.63 0-1.27 0.17-0.63 0.17-1.32 0.22h0.05l-2.2-0.24q-1.61-0.2-3.17-0.78-1.56-0.59-3.22-0.59-1.47 0-2.15 0.68-0.68 0.69-1.12 1.54-0.44 0.86-0.88 1.54-0.44 0.68-1.47 0.68-0.29 0-0.44-0.04 0.49 1.56 0.91 2.63 0.41 1.08 1 1.93 0.58 0.86 1.46 1.61 0.88 0.76 2.25 1.64 0.14 0.1 0.41 0.34 0.27 0.24 0.56 0.51 0.3 0.27 0.57 0.47 0.26 0.19 0.41 0.19 0.83 0 1.59-0.39 0.75-0.39 1.58-0.39 0.59 0 1.1 0.27 0.52 0.27 1.1 0.27 0.59 0 1.12-0.22 0.54-0.22 1.18-0.22 0.24 0 0.51 0.05 0.27 0.05 0.51 0.09 1.47 0.4 2.93 0.37 1.47-0.02 2.98 0.03 1.07 0 2.17 0.39 1.1 0.39 2.13 1 1.02 0.61 1.9 1.39 0.88 0.78 1.52 1.61 0.48 0.68 1.07 1.22 0.59 0.54 1.15 1.1 0.56 0.56 1 1.2 0.44 0.63 0.63 1.46 0.25 0.98 0.66 2.15 0.42 1.17 0.42 2.1zm54.003 4.73q0 1.32-0.42 2.25-0.41 0.93-1.07 1.66-0.66 0.73-1.52 1.37-0.85 0.63-1.73 1.37-0.68 0.58-1.22 0.87-0.54 0.3-1.05 0.49-0.51 0.2-1.07 0.39-0.56 0.2-1.3 0.54-0.97 0.49-1.63 0.9-0.66 0.42-1.32 0.76-0.66 0.34-1.44 0.56-0.78 0.22-1.95 0.37-1.96 0.24-3.94 0.58-1.97 0.35-3.93 0.35-0.39 0-0.8-0.17-0.42-0.18-0.95-0.35-0.54-0.17-1.2-0.34-0.66-0.17-1.59-0.17-0.97 0-1.56-0.29-0.59-0.3-1.05-0.69t-0.95-0.85q-0.49-0.46-1.27-0.81-2.93-1.31-4.98-3.17-2.05-1.86-3.52-4.15-1.46-2.3-2.44-4.98-0.98-2.69-1.66-5.62-0.54-2.05-0.54-4.1 0-2.68 1.27-4.98-0.48-1.37-0.48-2.63 0-0.93 0.53-2.76 0.54-1.83 1.39-3.69 0.86-1.86 1.86-3.34 1-1.49 1.88-1.84 0.68-0.24 0.95-0.41 0.27-0.17 0.27-0.95 0-0.59 0.46-0.98 0.47-0.39 1.13-0.63 0.66-0.25 1.32-0.44 0.65-0.2 1.09-0.39 1.81-0.88 3.45-1.49 1.63-0.61 3.27-1.03 1.63-0.41 3.39-0.61 1.76-0.19 3.76-0.19 1.08 0 2.1 0.29 1.03 0.29 1.98 0.76 0.95 0.46 1.88 1.02t1.8 1.1h-0.04q0.73 0.1 1.39 0.41 0.66 0.32 1.39 0.42 0.68 0.83 1.78 1.59 1.1 0.75 2.15 1.58 1.05 0.83 1.81 1.79 0.75 0.95 0.75 2.17 0 0.19-0.02 0.39-0.03 0.19-0.07 0.44l0.19-0.25q0.2 0.15 0.37 0.49 0.17 0.34 0.31 0.76 0.15 0.41 0.25 0.83 0.1 0.41 0.15 0.66 0.39 0.63 1.04 1.02 0.66 0.39 1.05 1.08-0.48 0.49-0.48 1.27 0 0.83 0.34 1.63 0.34 0.81 0.34 1.64 0 0.98-0.1 1.88-0.1 0.9-0.1 1.88 0 0.73-0.56 1.12t-1.22 0.69q-0.66 0.29-1.19 0.58-0.54 0.29-0.54 0.83 0 0.39-0.46 0.37-0.47-0.03-0.76-0.03-2.15 0-4.27-0.53-2.13-0.54-4.23-0.54-2.29 0-4.54 0.32-2.24 0.31-4.54 0.31-1.71 0-3.39-0.09-1.69-0.1-3.4-0.1-0.44 0-1.66 0.17-1.22 0.17-2.56 0.44-1.34 0.27-2.56 0.63-1.22 0.37-1.71 0.71-0.05 0.25-0.05 0.69 0 2.29 1.34 4.73 1.34 2.44 3.54 4.44 2.2 2.01 4.93 3.33 2.74 1.31 5.52 1.31 1.61 0 3.2 0.13 1.59 0.12 3.1 0.7 1.32-0.63 2.42-1.46 1.09-0.83 2.12-1.76 1.03-0.93 2-1.9 0.98-0.98 2-1.96 0.2-0.19 0.96-0.36 0.75-0.17 1.63-0.3 0.88-0.12 1.69-0.19 0.8-0.07 1.1-0.07 1.12 0 2.09 0.34 0.3 1.12 0.3 2.19zm-7.33-19.82q0-0.73-0.24-1.42-0.24-0.68-0.39-1.41-0.25-1.37-0.25-2.66 0-1.3-0.39-2.61h-0.04q0 0.29-0.2 0.56-0.2 0.27-0.54 0.27-0.58 0-1.12-0.3-0.54-0.29-0.93-0.73-1.85-0.83-3.34-1.56-1.49-0.74-2.98-1.3-1.49-0.56-3.18-0.88-1.68-0.31-3.88-0.31-0.19 0-0.36 0.02-0.17 0.03-0.32 0.17l0.24 0.54-0.39 0.1q-1.32 0.24-2.17 0.46-0.85 0.22-1.54 0.61-0.68 0.39-1.34 0.95-0.66 0.57-1.69 1.44-0.48 0.44-1.05 0.66-0.56 0.22-1.12 0.39-0.56 0.17-1.07 0.37-0.52 0.2-0.86 0.63-0.34 1.23-1 2.37-0.66 1.15-0.66 2.42 0 0.73 0.61 1.29 0.61 0.57 1.57 0.96 0.95 0.39 2.1 0.68 1.14 0.29 2.27 0.44 1.12 0.15 2.07 0.22 0.95 0.07 1.49 0.07 1.86 0 3.66-0.36 1.81-0.37 3.66-0.37 1.91 0 3.81 0.17 1.91 0.17 3.81 0.17 0.49 0 1.47-0.05 0.97-0.05 1.93-0.27 0.95-0.22 1.66-0.63 0.7-0.42 0.7-1.1zm68.165-5.61q0 0.97-0.39 1.66-0.39 0.68-0.85 1.29-0.47 0.61-0.93 1.24-0.46 0.64-0.61 1.52-0.44-0.2-0.9-0.25-0.47-0.04-0.96-0.04-1.17 0-2.32 0.17-1.14 0.17-2.27 0.17-1.31 0-2.17-0.81-0.85-0.8-1.37-1.98-0.51-1.17-0.7-2.51-0.2-1.34-0.2-2.42 0-1.36 0.44-2.78-0.39-0.15-0.68-0.15-0.64 0-0.91 0.39-0.26 0.39-0.75 0.39-0.44 0-0.78-0.31-0.35-0.32-0.83-0.32-0.74 0-1.84 0.46-1.09 0.47-2.12 1.2-1.02 0.73-1.78 1.59-0.76 0.85-0.76 1.63-1.02 0.1-1.93 0.56-0.9 0.47-1.73 1-0.64 0.4-1.07 1.23-0.44 0.83-0.81 1.78t-0.73 1.93q-0.37 0.97-0.86 1.61-0.83 1.07-1.44 2.17t-0.61 2.47q0 1.71 0.54 3.46 0.54 1.76 0.54 3.57 0 1.17-0.18 2.34-0.17 1.17-0.17 2.3 0 1.36 0.49 2.19t1.32 1.3q0.83 0.46 1.91 0.61 1.07 0.14 2.19 0.14 1.22 0 2.37-0.07t2.12-0.07q0.35 0.39 0.4 0.73 0.04 0.34-0.03 0.71-0.07 0.36-0.19 0.73-0.13 0.37-0.13 0.85 0 0.2 0.1 0.49 0.73 0 1.27-0.34t0.78-1.07q0.34 0.09 0.61 0.29t0.27 0.59q0 0.29-0.15 0.56-0.14 0.27-0.34 0.51-0.19 0.24-0.34 0.51t-0.15 0.61q0 0.2 0.05 0.42t0.15 0.36q-0.24 0.4-0.68 0.54-0.44 0.15-0.88 0.15-0.78 0-1.3-0.25-0.51-0.24-0.92-0.53-0.42-0.3-0.76-0.54t-0.83-0.24q-0.2 0-0.59 0.09-0.39 0.1-0.78 0.25-0.39 0.14-0.68 0.36-0.3 0.22-0.3 0.42 0 0.39 0.27 0.68 0.27 0.3 0.27 0.69 0 0.34-0.24 0.53-0.25 0.2-0.59 0.27t-0.71 0.1q-0.36 0.02-0.61 0.02-1.9 0-3.78-0.41-1.88-0.42-3.79-0.42-0.87 0-1.75 0.39-0.88 0.39-1.86 0.39-0.54 0-0.8-0.21-0.27-0.22-0.47-0.52-0.19-0.29-0.44-0.51-0.24-0.22-0.73-0.22-0.93 0-1.83 0.2-0.9 0.19-1.81 0.41-0.9 0.22-1.8 0.39-0.91 0.17-1.84 0.17-0.48 0-1.17-0.12-0.68-0.12-1.32-0.42-0.63-0.29-1.07-0.73t-0.44-1.07q0-0.39 0.46-1.03 0.47-0.63 1.05-1.24 0.59-0.61 1.18-1.05 0.58-0.44 0.88-0.44 0.78 0 1.53 0.05 0.76 0.05 1.59 0.05 1.32 0 2.66-0.42 1.34-0.41 2.44-1.2 1.1-0.78 1.79-1.95 0.68-1.17 0.68-2.64 0-0.63-0.1-1.24-0.1-0.61-0.1-1.25 0-1.26 0.3-2.53 0.29-1.27 0.29-2.54 0-1.71-0.37-3.49-0.36-1.79-0.36-3.59 0-1.61 0.07-3.2t0.07-3.2q0-0.73-0.05-2.15-0.04-1.41-0.31-2.83t-0.83-2.49q-0.56-1.08-1.54-1.08-1.08 0-2.15 0.25-1.07 0.24-2.2 0.24-0.83 0-1.95-0.12t-2.15-0.49q-1.02-0.36-1.76-1.05-0.73-0.68-0.73-1.8 0-1.22 0.34-1.98 0.35-0.76 0.91-1.15t1.31-0.54q0.76-0.14 1.64-0.14 0.78 0 1.61 0.05t1.61 0.05q1.57 0 3.1-0.18 1.54-0.17 3.1-0.17 1.08 0 2.15 0.1 1.08 0.1 2.1 0.44 0.93 0.29 1.37 1.1t0.81 1.64q0.36 0.83 0.85 1.48 0.49 0.66 1.56 0.66 0.49 0 0.91-0.26 0.41-0.27 0.8-0.62 0.39-0.34 0.78-0.63 0.39-0.29 0.93-0.39 1.07-0.15 1.98-0.68 0.9-0.54 1.78-1.08t1.78-0.98q0.91-0.43 1.98-0.43 0.63 0 1.59-0.15 0.95-0.15 1.9-0.42 0.95-0.26 1.81-0.66 0.85-0.39 1.34-0.87 1.32 0.09 3.1 0.63t3.42 1.44q1.63 0.9 2.86 2.13 1.22 1.22 1.41 2.73 0.15 0.93 0.54 1.76t0.8 1.63q0.42 0.81 0.76 1.66 0.34 0.86 0.34 1.79z" fill="url(#a)" data-dx="0" data-dy="75" data-font="Special Elite" data-font-scale="contain" data-font-size="100" data-font-src="/Content/clientfonts/specialelite.woff" data-href="" data-letterspacing="0" data-offset="0" data-side="left" data-text-anchor="middle" data-textpath="Parser" data-xmlspace="preserve"/>
    <rect width="0" height="0"/>
  </g>
</svg>